<svg width="94" height="24" viewBox="0 0 94 24" fill="none" xmlns="http://www.w3.org/2000/svg">
<path d="M37.6622 0.122638C38.0155 0.0112521 38.3929 0.00782533 38.7617 0.00268444C44.8288 0.0112526 50.8958 -0.00588486 56.9629 0.00953781C58.4689 0.000969663 59.7863 1.41814 59.6988 2.91586C59.692 9.03351 59.704 15.1529 59.692 21.2705C59.692 22.7717 58.2768 24.0895 56.7776 23.9952C50.6591 23.9918 44.5389 24.0021 38.4203 23.9901C36.9211 23.9969 35.5952 22.59 35.6827 21.094C35.6844 14.973 35.6775 8.85187 35.6861 2.73078C35.6844 1.55181 36.5575 0.4825 37.6622 0.122638ZM38.2848 1.91509C37.7394 1.99221 37.5078 2.58341 37.5438 3.07351C37.5541 9.09349 37.5318 15.1135 37.5541 21.1317C37.5335 21.7075 38.0207 22.1565 38.5901 22.1291C44.6006 22.1428 50.6111 22.1291 56.6216 22.1359C56.9389 22.1137 57.3163 22.1034 57.5461 21.8515C57.8446 21.5704 57.8223 21.1163 57.8377 20.7427C57.8274 14.7965 57.8429 8.85016 57.8291 2.90386C57.8669 2.32465 57.3729 1.83969 56.7948 1.87054C50.9044 1.85512 45.0123 1.87397 39.1202 1.86197C38.8423 1.86711 38.5576 1.84312 38.2848 1.91509Z" fill="#FD71EA"/>
<path d="M76.4626 0.160337C79.6754 -0.0470124 82.9019 -0.0247354 86.1199 0.079796C87.5573 0.102073 89.0427 0.282005 90.3224 0.98288C91.9468 1.82256 93.1406 3.39053 93.5832 5.15557C94.163 7.39014 93.9245 9.71897 94 12.0015C93.916 14.4075 94.1956 16.8802 93.4751 19.2159C92.8748 21.1849 91.2847 22.8042 89.3292 23.4486C87.9724 23.9318 86.5127 23.8993 85.0941 23.9541C82.6326 24.0192 80.1711 24.0106 77.7114 23.913C76.6839 23.8855 75.6393 23.793 74.665 23.4469C73.0937 22.9156 71.7283 21.7829 70.9685 20.3058C70.2223 18.8612 70.0353 17.2041 70.025 15.6001C69.9873 13.4872 69.9839 11.3743 70.0113 9.25971C70.0062 7.34045 70.0868 5.32693 71.0182 3.59959C72.0731 1.59807 74.2396 0.348836 76.4626 0.160337ZM73.1881 3.72811C72.2275 4.88139 71.9513 6.43394 71.9308 7.89395C71.9067 9.89204 71.8175 11.8884 71.8827 13.8831C71.9599 15.3705 71.8158 16.8905 72.2172 18.3437C72.5208 19.5655 73.3047 20.6691 74.4128 21.2877C76.0304 22.2336 77.9738 21.9817 79.7663 22.0777C82.2141 22.2199 84.6618 22.0571 87.1096 21.9937C88.8644 21.92 90.6449 20.9741 91.403 19.3393C92.3893 17.2641 91.9536 14.9061 92.1303 12.6938C92.144 11.035 92.0651 9.37624 92.0548 7.71745C92.036 5.92842 91.4802 3.94232 89.8987 2.91585C88.3052 1.76601 86.2485 2.00934 84.3977 1.92366C81.9345 1.77629 79.4713 1.93223 77.0081 2.00077C75.5775 2.04876 74.1195 2.61083 73.1881 3.72811Z" fill="#FD71EA"/>
<path d="M41.0654 4.01772C41.8218 3.82408 42.6898 4.0657 43.1409 4.72716C43.9025 5.67994 43.4325 7.24791 42.2901 7.65404C41.1614 8.15442 39.7291 7.25134 39.6845 6.02438C39.5713 5.13329 40.2077 4.24392 41.0654 4.01772Z" fill="#FD71EA"/>
<path d="M88.3172 4.26619C89.0959 4.17194 89.9038 4.85226 89.861 5.65766C89.9176 6.51619 89.0033 7.27019 88.1714 7.04742C87.4732 6.91204 86.9552 6.18203 87.0718 5.48116C87.1456 4.8454 87.6962 4.35873 88.3172 4.26619Z" fill="#FD71EA"/>
<path d="M81.4165 6.15804C83.2107 5.99011 85.0684 6.71497 86.2759 8.05503C87.2451 9.12091 87.8335 10.5501 87.7974 11.9998C87.8403 13.8557 86.8712 15.6721 85.3737 16.75C84.3977 17.4611 83.2021 17.8279 82.0014 17.869C80.3409 17.8656 78.6874 17.1527 77.5879 15.9017C76.3048 14.5051 75.7816 12.4573 76.2482 10.6203C76.8022 8.23839 78.9807 6.36711 81.4165 6.15804ZM81.4628 8.04304C79.6462 8.24524 78.1162 9.82007 77.9755 11.6399C77.8091 13.2713 78.7783 14.9472 80.2809 15.607C81.6086 16.2616 83.2861 16.0388 84.4285 15.1118C85.4577 14.2961 86.0478 12.9577 85.902 11.6451C85.7939 9.47734 83.6035 7.7243 81.4628 8.04304Z" fill="#FD71EA"/>
<path d="M48.4875 10.7094C48.9301 9.66584 50.0948 9.16718 51.16 9.05408C52.3195 8.98039 53.618 9.17746 54.4568 10.0548C55.2047 10.8979 55.3848 12.0684 55.462 13.1531C55.4929 15.3757 55.4689 17.6 55.4757 19.8225C54.3951 19.8174 53.3161 19.8242 52.2372 19.8191C52.2355 17.9221 52.2475 16.0251 52.2303 14.1298C52.1909 13.4615 52.1343 12.6853 51.594 12.2157C51.0879 11.7668 50.3435 11.8284 49.7294 11.9638C48.7911 12.2637 48.4618 13.3296 48.4515 14.219C48.4309 16.0868 48.4481 17.9547 48.4429 19.8225C47.376 19.8208 46.3108 19.8191 45.2456 19.8225C45.2456 16.2873 45.2404 12.7538 45.2473 9.21859C46.3108 9.2203 47.3743 9.2203 48.4378 9.2203C48.4343 9.71554 48.4309 10.2142 48.4875 10.7094Z" fill="#FD71EA"/>
<path d="M39.9058 9.22202C40.9933 9.21516 42.0808 9.22716 43.1683 9.21687C43.2026 12.7521 43.1718 16.289 43.1838 19.826C42.0911 19.8174 40.9985 19.8208 39.9041 19.8242C39.9041 16.289 39.9007 12.7555 39.9058 9.22202Z" fill="#FD71EA"/>
<path d="M0.237963 0.0116864C2.00747 0.00779078 3.77776 0.0303859 5.54648 0C6.12539 1.18427 6.64267 2.39971 7.2013 3.5941C8.02363 5.4157 8.86469 7.22872 9.68079 9.05343C9.73384 8.99734 9.77442 8.93345 9.8025 8.86255C10.9744 5.90966 12.1626 2.96301 13.3353 0.0109077C15.0205 0.0163616 16.7058 0.0155825 18.3918 0.0109077C18.3933 0.109857 18.3965 0.208805 18.3996 0.307754C17.9338 0.778346 17.4462 1.22634 16.9648 1.67979C16.8423 1.78731 16.7456 1.93379 16.7549 2.10286C16.7541 5.58711 16.7534 9.07135 16.7557 12.5556C16.7487 12.7208 16.8431 12.8641 16.9632 12.9693C17.4454 13.4235 17.933 13.8723 18.3996 14.3429C18.3965 14.4419 18.3933 14.5408 18.3918 14.6398C15.9817 14.6351 13.5725 14.6351 11.1624 14.6398C11.1601 14.5408 11.1569 14.4419 11.1546 14.3429C11.6461 13.8458 12.1533 13.3659 12.6542 12.8789C12.8071 12.7628 12.7993 12.5618 12.8016 12.3904C12.7969 9.61441 12.8024 6.83838 12.7985 4.06158C11.405 7.58323 10.0319 11.1127 8.65092 14.639C8.46991 14.6366 8.2889 14.6366 8.10868 14.6413C6.71523 11.5934 5.3171 8.54778 3.92131 5.50062C3.69739 5.0386 3.51639 4.55399 3.25892 4.10833C3.25268 6.47843 3.26126 8.84853 3.25424 11.2186C3.24565 11.4578 3.31977 11.6993 3.47504 11.8832C4.10622 12.6483 4.72492 13.4243 5.35689 14.1886C5.48328 14.304 5.43101 14.4871 5.44662 14.6382C3.63108 14.6359 1.81554 14.6351 0 14.639C0.0171645 14.5058 -0.0327684 14.3468 0.0538344 14.2338C0.666296 13.4952 1.2733 12.7527 1.8842 12.0133C2.04336 11.8349 2.1838 11.6222 2.1916 11.3744C2.18536 8.5696 2.1916 5.76319 2.18848 2.95756C2.2111 2.59838 1.9154 2.3553 1.71177 2.10052C1.22102 1.50137 0.71935 0.911576 0.234842 0.307754C0.235622 0.208805 0.237183 0.109856 0.237963 0.0116864Z" fill="#FD71EA"/>
<path d="M19.9865 7.51077C21.149 7.46947 22.317 7.50609 23.4811 7.49285C23.719 7.46168 23.9687 7.62218 24.0046 7.86527C24.0639 8.13173 23.8368 8.41533 23.5606 8.40209C22.3888 8.40131 21.2161 8.41299 20.045 8.39663C19.5808 8.35534 19.5356 7.61829 19.9865 7.51077Z" fill="#FD71EA"/>
<path d="M19.9857 10.628C21.1475 10.5852 22.3147 10.6226 23.4779 10.6093C23.7143 10.5782 23.9664 10.734 24.0038 10.9771C24.067 11.2459 23.8353 11.5342 23.5575 11.5186C22.3864 11.5178 21.2146 11.5295 20.0435 11.5124C19.58 11.4703 19.5363 10.7348 19.9857 10.628Z" fill="#FD71EA"/>
<path d="M19.985 13.7445C21.1475 13.7017 22.3147 13.7391 23.4787 13.7258C23.7151 13.6947 23.9664 13.8505 24.0038 14.0936C24.067 14.3608 23.8376 14.6491 23.5606 14.6351C22.4387 14.6405 21.3168 14.6343 20.1948 14.6374C20.0123 14.653 19.818 14.5813 19.7267 14.4154C19.5746 14.1746 19.708 13.8186 19.985 13.7445Z" fill="#FD71EA"/>
<path d="M5.6284 16.8611C5.80239 16.8291 5.98028 16.8447 6.15582 16.8424C11.9559 16.8455 17.7559 16.84 23.5567 16.8447C23.8025 16.8314 24.0217 17.0566 24.0116 17.3005C24.0194 17.542 23.8025 17.7633 23.5591 17.7516C17.7309 17.757 11.9028 17.7508 6.07468 17.7547C5.86012 17.7469 5.6011 17.7976 5.43803 17.6191C5.19929 17.3948 5.3093 16.9436 5.6284 16.8611Z" fill="#FD71EA"/>
<path d="M5.63152 19.9768C5.857 19.9409 6.08716 19.9643 6.3142 19.9596C11.9566 19.9589 17.5991 19.9612 23.2415 19.9581C23.4717 19.9612 23.7619 19.9152 23.9172 20.1326C24.1528 20.4084 23.925 20.8938 23.5567 20.8681C17.6256 20.8712 11.6937 20.8712 5.7626 20.8681C5.25312 20.9032 5.14155 20.0921 5.63152 19.9768Z" fill="#FD71EA"/>
<path d="M5.63308 23.0925C7.07959 23.0528 8.53077 23.087 9.97883 23.0761C14.5056 23.0769 19.0323 23.073 23.5591 23.0777C23.8353 23.0629 24.0654 23.348 24.0046 23.6161C23.9679 23.8592 23.7175 24.0181 23.4795 23.9869C17.5733 23.9838 11.6672 23.9893 5.76182 23.9846C5.54882 23.9939 5.35065 23.8264 5.31632 23.6184C5.26717 23.3956 5.41229 23.1533 5.63308 23.0925Z" fill="#FD71EA"/>
</svg>
