<svg width="25" height="24" viewBox="0 0 25 24" fill="none" xmlns="http://www.w3.org/2000/svg">
<path d="M0.237963 0.0116864C2.00747 0.00779078 3.77776 0.0303859 5.54648 0C6.12539 1.18427 6.64267 2.39971 7.2013 3.5941C8.02363 5.4157 8.86469 7.22872 9.68079 9.05343C9.73384 8.99734 9.77442 8.93345 9.8025 8.86255C10.9744 5.90966 12.1626 2.96301 13.3353 0.0109077C15.0205 0.0163616 16.7058 0.0155825 18.3918 0.0109077C18.3933 0.109857 18.3965 0.208805 18.3996 0.307754C17.9338 0.778346 17.4462 1.22634 16.9648 1.67979C16.8423 1.78731 16.7456 1.93379 16.7549 2.10286C16.7541 5.58711 16.7534 9.07135 16.7557 12.5556C16.7487 12.7208 16.8431 12.8641 16.9632 12.9693C17.4454 13.4235 17.933 13.8723 18.3996 14.3429C18.3965 14.4419 18.3933 14.5408 18.3918 14.6398C15.9817 14.6351 13.5725 14.6351 11.1624 14.6398C11.1601 14.5408 11.1569 14.4419 11.1546 14.3429C11.6461 13.8458 12.1533 13.3659 12.6542 12.8789C12.8071 12.7628 12.7993 12.5618 12.8016 12.3904C12.7969 9.61441 12.8024 6.83838 12.7985 4.06158C11.405 7.58323 10.0319 11.1127 8.65092 14.639C8.46991 14.6366 8.2889 14.6366 8.10868 14.6413C6.71523 11.5934 5.3171 8.54778 3.92131 5.50062C3.69739 5.0386 3.51639 4.55399 3.25892 4.10833C3.25268 6.47843 3.26126 8.84853 3.25424 11.2186C3.24565 11.4578 3.31977 11.6993 3.47504 11.8832C4.10622 12.6483 4.72492 13.4243 5.35689 14.1886C5.48328 14.304 5.43101 14.4871 5.44662 14.6382C3.63108 14.6359 1.81554 14.6351 0 14.639C0.0171645 14.5058 -0.0327684 14.3468 0.0538344 14.2338C0.666296 13.4952 1.2733 12.7527 1.8842 12.0133C2.04336 11.8349 2.1838 11.6222 2.1916 11.3744C2.18536 8.5696 2.1916 5.76319 2.18848 2.95756C2.2111 2.59838 1.9154 2.3553 1.71177 2.10052C1.22102 1.50137 0.71935 0.911576 0.234842 0.307754C0.235622 0.208805 0.237183 0.109856 0.237963 0.0116864Z" fill="#FBFBFB"/>
<path d="M19.9865 7.51077C21.149 7.46947 22.317 7.50609 23.4811 7.49285C23.719 7.46168 23.9687 7.62218 24.0046 7.86527C24.0639 8.13173 23.8368 8.41533 23.5606 8.40209C22.3888 8.40131 21.2161 8.41299 20.045 8.39663C19.5808 8.35534 19.5356 7.61829 19.9865 7.51077Z" fill="#FBFBFB"/>
<path d="M19.9857 10.628C21.1475 10.5852 22.3147 10.6226 23.4779 10.6093C23.7143 10.5782 23.9664 10.734 24.0038 10.9771C24.067 11.2459 23.8353 11.5342 23.5575 11.5186C22.3864 11.5178 21.2146 11.5295 20.0435 11.5124C19.58 11.4703 19.5363 10.7348 19.9857 10.628Z" fill="#FBFBFB"/>
<path d="M19.985 13.7445C21.1475 13.7017 22.3147 13.7391 23.4787 13.7258C23.7151 13.6947 23.9664 13.8505 24.0038 14.0936C24.067 14.3608 23.8376 14.6491 23.5606 14.6351C22.4387 14.6405 21.3168 14.6343 20.1948 14.6374C20.0123 14.653 19.818 14.5813 19.7267 14.4154C19.5746 14.1746 19.708 13.8186 19.985 13.7445Z" fill="#FBFBFB"/>
<path d="M5.6284 16.8611C5.80239 16.8291 5.98028 16.8447 6.15582 16.8424C11.9559 16.8455 17.7559 16.84 23.5567 16.8447C23.8025 16.8314 24.0217 17.0566 24.0116 17.3005C24.0194 17.542 23.8025 17.7633 23.5591 17.7516C17.7309 17.757 11.9028 17.7508 6.07468 17.7547C5.86012 17.7469 5.6011 17.7976 5.43803 17.6191C5.19929 17.3948 5.3093 16.9436 5.6284 16.8611Z" fill="#FBFBFB"/>
<path d="M5.63152 19.9768C5.857 19.9409 6.08716 19.9643 6.3142 19.9596C11.9566 19.9589 17.5991 19.9612 23.2415 19.9581C23.4717 19.9612 23.7619 19.9152 23.9172 20.1326C24.1528 20.4084 23.925 20.8938 23.5567 20.8681C17.6256 20.8712 11.6937 20.8712 5.7626 20.8681C5.25312 20.9032 5.14155 20.0921 5.63152 19.9768Z" fill="#FBFBFB"/>
<path d="M5.63308 23.0925C7.07959 23.0528 8.53077 23.087 9.97883 23.0761C14.5056 23.0769 19.0323 23.073 23.5591 23.0777C23.8353 23.0629 24.0654 23.348 24.0046 23.6161C23.9679 23.8592 23.7175 24.0181 23.4795 23.9869C17.5733 23.9838 11.6672 23.9893 5.76182 23.9846C5.54882 23.9939 5.35065 23.8264 5.31632 23.6184C5.26717 23.3956 5.41229 23.1533 5.63308 23.0925Z" fill="#FBFBFB"/>
</svg>
