<svg width="98" height="36" viewBox="0 0 98 36" fill="none" xmlns="http://www.w3.org/2000/svg">
<path d="M16.1955 16.0815C16.1955 17.2895 15.9989 18.4361 15.6015 19.5254C15.2001 20.6188 14.6382 21.573 13.9197 22.3961C13.2013 23.2192 12.3423 23.8703 11.3509 24.3577C10.3555 24.8409 9.26778 25.0866 8.0797 25.0866C7.34117 25.0866 6.64679 24.9801 6.00459 24.7754C5.3664 24.5665 4.75631 24.2348 4.19438 23.7762V24.6689H0V0H4.22248L4.25459 8.32125C4.74025 7.92402 5.31823 7.6087 5.98853 7.37118C6.65482 7.13367 7.36124 7.01491 8.09977 7.01491C9.12729 7.01491 10.1267 7.24833 11.0981 7.71108C12.0694 8.17792 12.9364 8.81675 13.6909 9.63168C14.4495 10.4425 15.0556 11.3967 15.5132 12.4983C15.9708 13.5998 16.1955 14.7915 16.1955 16.0815ZM11.945 16.0815C11.945 15.287 11.8286 14.5622 11.5958 13.9111C11.363 13.2558 11.0298 12.6948 10.6124 12.2321C10.195 11.7652 9.69725 11.409 9.12328 11.1592C8.5453 10.9134 7.91112 10.7906 7.2047 10.7906C6.75917 10.7906 6.24541 10.8848 5.65539 11.0732C5.07339 11.2615 4.58372 11.5031 4.19438 11.798V20.0619C5.11353 20.9137 6.14507 21.3396 7.29301 21.3396C7.95929 21.3396 8.57339 21.2126 9.15138 20.9546C9.72534 20.6966 10.219 20.3363 10.6284 19.8694C11.0378 19.4026 11.363 18.8498 11.5958 18.2068C11.8286 17.5598 11.945 16.8513 11.945 16.0815Z" fill="#A51C92"/>
<path d="M21.9633 25.0867H17.7087V7.87494H21.9633V25.0867Z" fill="#A51C92"/>
<path d="M22.0235 6.2574H17.6525V1.79784H22.0235V6.2574Z" fill="#A51C92"/>
<path d="M33.8681 24.2552C33.4427 24.5296 32.945 24.7384 32.383 24.8777C31.8211 25.0169 31.2552 25.0865 30.6932 25.0865C29.7018 25.0865 28.867 24.9596 28.1886 24.7139C27.5103 24.4682 26.9644 24.0832 26.555 23.5713C26.1497 23.0554 25.8526 22.4001 25.668 21.6098C25.4834 20.8153 25.391 19.8857 25.391 18.8128V11.2942H23.1795V9.36134C24.5361 8.78803 25.6399 7.93624 26.4828 6.806C27.3297 5.67575 27.9077 4.2097 28.2167 2.40786H29.5854V7.42845H33.84V11.2942H29.5854V19.1118C29.5854 19.5459 29.6416 19.9021 29.746 20.1806C29.8544 20.4591 29.9948 20.6761 30.1674 20.8358C30.344 20.9955 30.5447 21.102 30.7655 21.1634C30.9902 21.2208 31.2271 21.2494 31.4799 21.2494C31.8091 21.2494 32.2064 21.1921 32.676 21.0733C33.1416 20.9546 33.539 20.7539 33.8681 20.4795V24.2552Z" fill="#A51C92"/>
<path d="M60.09 7.84625L54.4386 25.0866H50.7982L47.4467 14.8325L44.0992 25.0866H40.4547L34.7752 7.84625H39.2024L42.3773 18.6041L45.5562 7.84625H49.285L52.4879 18.6041L55.6628 7.84625H60.09Z" fill="#A51C92"/>
<path d="M65.3681 25.0867H61.1135V7.87494H65.3681V25.0867Z" fill="#A51C92"/>
<path d="M65.4243 6.2574H61.0573V1.79784H65.4243V6.2574Z" fill="#A51C92"/>
<path d="M79.7896 19.7957C79.7896 20.6475 79.5969 21.4051 79.2076 22.0685C78.8182 22.7319 78.3085 23.2888 77.6864 23.7311C77.0642 24.1775 76.3618 24.5174 75.5831 24.7426C74.8085 24.9719 74.0378 25.0866 73.2792 25.0866C71.9908 25.0866 70.8108 24.8409 69.7311 24.3577C68.6514 23.8703 67.7001 23.0923 66.8853 22.0235L69.418 19.4067C69.9237 20.0619 70.5057 20.5738 71.168 20.9383C71.8263 21.3068 72.5367 21.4911 73.2913 21.4911C73.9536 21.4911 74.5034 21.3641 74.9409 21.1184C75.3744 20.8686 75.5952 20.5001 75.5952 20.0046C75.5952 19.4886 75.2821 19.0586 74.664 18.7105C74.0419 18.3624 73.1669 18.0225 72.039 17.6827C71.3807 17.4861 70.7385 17.2322 70.1164 16.9251C69.4943 16.6179 68.9444 16.2412 68.4587 15.7989C67.973 15.3525 67.5837 14.8407 67.2907 14.2673C67.0017 13.694 66.8532 13.0265 66.8532 12.2771C66.8532 11.4417 67.0459 10.6964 67.4232 10.033C67.8005 9.3655 68.3022 8.81266 68.9123 8.36629C69.5264 7.91993 70.2248 7.58004 70.9994 7.34252C71.7781 7.105 72.5688 6.98625 73.3675 6.98625C75.9323 6.98625 78.0356 7.97726 79.6732 9.9552L77.1686 12.5433C76.6829 11.929 76.129 11.4417 75.5069 11.0854C74.8847 10.7292 74.2064 10.5531 73.4679 10.5531C73.215 10.5531 72.9501 10.5858 72.6651 10.6555C72.3842 10.7251 72.1233 10.8234 71.8784 10.9544C71.6376 11.0813 71.4369 11.2492 71.2844 11.4581C71.1279 11.6669 71.0516 11.9004 71.0516 12.1584C71.0516 12.6129 71.3446 13.0101 71.9386 13.3459C72.5327 13.6817 73.3796 14.0175 74.4874 14.3574C75.2058 14.5745 75.8842 14.8529 76.5264 15.1887C77.1686 15.5245 77.7305 15.9177 78.2162 16.364C78.7018 16.8063 79.0872 17.3141 79.3681 17.8792C79.6491 18.4443 79.7896 19.0832 79.7896 19.7957Z" fill="#A51C92"/>
<path d="M98 16.0201C98 16.2985 97.9839 16.5852 97.9558 16.8841C97.9277 17.179 97.8916 17.4861 97.8555 17.8055H84.3933C84.5499 18.2969 84.7706 18.7679 85.0516 19.2142C85.3326 19.6606 85.6777 20.0496 86.0831 20.3732C86.4925 20.7008 86.9541 20.9588 87.4679 21.1471C87.9816 21.3355 88.5516 21.4297 89.1737 21.4297C89.9283 21.4297 90.6869 21.2946 91.4455 21.0284C92.2041 20.7622 92.8343 20.3977 93.34 19.9432L95.9891 22.65C94.8251 23.5387 93.6812 24.1693 92.5654 24.5338C91.4495 24.9023 90.2695 25.0866 89.0252 25.0866C87.7649 25.0866 86.5849 24.8491 85.4891 24.3741C84.3893 23.8949 83.4381 23.252 82.6313 22.4412C81.8245 21.6263 81.1904 20.6721 80.7248 19.5705C80.2592 18.473 80.0264 17.2977 80.0264 16.0487C80.0264 14.7997 80.2592 13.6285 80.7248 12.5269C81.1904 11.4295 81.8326 10.4712 82.6474 9.66037C83.4621 8.84545 84.4134 8.20252 85.5011 7.72748C86.5889 7.25245 87.7529 7.01494 88.9971 7.01494C90.1812 7.01494 91.3171 7.23607 92.4048 7.68244C93.4925 8.12881 94.4558 8.74716 95.2907 9.54161C96.1256 10.332 96.7838 11.2779 97.2695 12.3795C97.7552 13.477 98 14.6933 98 16.0201ZM93.6009 14.3575C93.2718 13.2641 92.6818 12.3877 91.8389 11.7243C90.992 11.0609 90.0367 10.7292 88.969 10.7292C87.9214 10.7292 86.9782 11.0609 86.1433 11.7243C85.3085 12.3877 84.7265 13.2641 84.3933 14.3575H93.6009Z" fill="#A51C92"/>
<path d="M15.4048 32.7034H14.6181V36H13.996V32.7034H13.2775V32.0482H15.4048V32.7034ZM22.9708 36H20.8033V32.0646H22.9708V32.7239H21.4335V33.6986H22.1921V34.3538H21.4335V35.3407H22.9708V36ZM30.621 36H29.461C28.7425 36 28.3813 35.6028 28.3813 34.8042V33.1662C28.3813 32.4373 28.7345 32.0728 29.4409 32.0728H30.621V32.7157H29.4008C29.1359 32.7157 29.0075 32.8427 29.0075 33.0966L29.0115 34.8165V34.8411C29.0115 35.1769 29.1239 35.3407 29.3486 35.3407H30.621V36ZM36.0516 36V32.0646H36.6858V33.6986H37.7454V32.0646H38.3716V36H37.7454V34.3538H36.6858V36H36.0516ZM46.1703 36H45.4358L44.5166 33.674V36H43.8905V32.0646H44.5287L45.5401 34.6527V32.0646H46.1703V36ZM53.4633 32.8918C53.4633 32.7731 53.3951 32.7157 53.2586 32.7157H52.508C52.3796 32.7157 52.3154 32.7731 52.3154 32.8918V35.1114C52.3154 35.1892 52.3354 35.2506 52.3716 35.2875C52.4077 35.3243 52.4478 35.3407 52.496 35.3407H53.3148C53.3589 35.3407 53.3951 35.3202 53.4232 35.2752C53.4513 35.226 53.4633 35.1728 53.4633 35.1114V32.8918ZM54.0895 35.2424C54.0854 35.7461 53.8486 36 53.379 36H52.4037C51.93 36 51.6932 35.7543 51.6932 35.267V32.7772C51.6932 32.298 51.91 32.0605 52.3515 32.0605H53.383C53.8526 32.0605 54.0895 32.298 54.0895 32.7772V35.2424ZM61.2941 36H59.5963V32.04H60.2225V35.3366H61.2941V36ZM68.4266 32.8918C68.4266 32.7731 68.3584 32.7157 68.2259 32.7157H67.4713C67.3429 32.7157 67.2787 32.7731 67.2787 32.8918V35.1114C67.2787 35.1892 67.2987 35.2506 67.3349 35.2875C67.371 35.3243 67.4111 35.3407 67.4593 35.3407H68.2781C68.3263 35.3407 68.3584 35.3202 68.3865 35.2752C68.4146 35.226 68.4266 35.1728 68.4266 35.1114V32.8918ZM69.0527 35.2424C69.0487 35.7461 68.8119 36 68.3423 36H67.367C66.8933 36 66.6565 35.7543 66.6565 35.267V32.7772C66.6565 32.298 66.8773 32.0605 67.3188 32.0605H68.3463C68.8159 32.0605 69.0527 32.298 69.0527 32.7772V35.2424ZM76.8716 36H75.539C74.8807 36 74.5516 35.6355 74.5516 34.9107V33.0925C74.5516 32.4086 74.9088 32.0646 75.6193 32.0646H76.8716V32.7239H75.5149C75.2861 32.7239 75.1737 32.8427 75.1737 33.0843V34.9598C75.1737 35.2137 75.2701 35.3407 75.4667 35.3407H76.2374V34.3538H75.4547V33.6904H76.8716V36ZM84.7144 32.0646L83.7471 34.2432V36H83.121V34.235L82.1898 32.0646H82.8521L83.426 33.4856L83.4341 33.5102L83.4381 33.502L84.0522 32.0646H84.7144Z" fill="#A51C92"/>
</svg>
