<svg width="59" height="24" viewBox="0 0 59 24" fill="none" xmlns="http://www.w3.org/2000/svg">
<path d="M2.66216 0.122638C3.01552 0.0112521 3.39289 0.00782533 3.76168 0.00268444C9.82875 0.0112526 15.8958 -0.00588486 21.9629 0.00953781C23.4689 0.000969663 24.7863 1.41814 24.6988 2.91586C24.692 9.03351 24.704 15.1529 24.692 21.2705C24.692 22.7717 23.2768 24.0895 21.7776 23.9952C15.6591 23.9918 9.53887 24.0021 3.42033 23.9901C1.92115 23.9969 0.595206 22.59 0.682687 21.094C0.684403 14.973 0.677541 8.85187 0.686118 2.73078C0.684403 1.55181 1.5575 0.4825 2.66216 0.122638ZM3.28482 1.91509C2.73935 1.99221 2.50778 2.58341 2.54381 3.07351C2.5541 9.09349 2.5318 15.1135 2.5541 21.1317C2.53351 21.7075 3.02066 22.1565 3.59015 22.1291C9.60062 22.1428 15.6111 22.1291 21.6216 22.1359C21.9389 22.1137 22.3163 22.1034 22.5461 21.8515C22.8446 21.5704 22.8223 21.1163 22.8377 20.7427C22.8274 14.7965 22.8429 8.85016 22.8291 2.90386C22.8669 2.32465 22.3729 1.83969 21.7948 1.87054C15.9044 1.85512 10.0123 1.87397 4.12018 1.86197C3.8423 1.86711 3.55756 1.84312 3.28482 1.91509Z" fill="#FD71EA"/>
<path d="M41.4626 0.160337C44.6754 -0.0470124 47.9019 -0.0247354 51.1199 0.079796C52.5573 0.102073 54.0427 0.282005 55.3224 0.98288C56.9468 1.82256 58.1406 3.39053 58.5832 5.15557C59.163 7.39014 58.9245 9.71897 59 12.0015C58.916 14.4075 59.1956 16.8802 58.4751 19.2159C57.8748 21.1849 56.2847 22.8042 54.3292 23.4486C52.9724 23.9318 51.5127 23.8993 50.0941 23.9541C47.6326 24.0192 45.1711 24.0106 42.7114 23.913C41.6839 23.8855 40.6393 23.793 39.665 23.4469C38.0937 22.9156 36.7283 21.7829 35.9685 20.3058C35.2223 18.8612 35.0353 17.2041 35.025 15.6001C34.9873 13.4872 34.9839 11.3743 35.0113 9.25971C35.0062 7.34045 35.0868 5.32693 36.0182 3.59959C37.0731 1.59807 39.2396 0.348836 41.4626 0.160337ZM38.1881 3.72811C37.2275 4.88139 36.9513 6.43394 36.9308 7.89395C36.9067 9.89204 36.8175 11.8884 36.8827 13.8831C36.9599 15.3705 36.8158 16.8905 37.2172 18.3437C37.5208 19.5655 38.3047 20.6691 39.4128 21.2877C41.0304 22.2336 42.9738 21.9817 44.7663 22.0777C47.2141 22.2199 49.6618 22.0571 52.1096 21.9937C53.8644 21.92 55.6449 20.9741 56.403 19.3393C57.3893 17.2641 56.9536 14.9061 57.1303 12.6938C57.144 11.035 57.0651 9.37624 57.0548 7.71745C57.036 5.92842 56.4802 3.94232 54.8987 2.91585C53.3052 1.76601 51.2485 2.00934 49.3977 1.92366C46.9345 1.77629 44.4713 1.93223 42.0081 2.00077C40.5775 2.04876 39.1195 2.61083 38.1881 3.72811Z" fill="#FD71EA"/>
<path d="M6.06535 4.01772C6.8218 3.82408 7.68975 4.0657 8.14088 4.72716C8.90248 5.67994 8.43249 7.24791 7.29009 7.65404C6.16141 8.15442 4.72912 7.25134 4.68452 6.02438C4.57131 5.13329 5.20769 4.24392 6.06535 4.01772Z" fill="#FD71EA"/>
<path d="M53.3172 4.26619C54.0959 4.17194 54.9038 4.85226 54.861 5.65766C54.9176 6.51619 54.0033 7.27019 53.1714 7.04742C52.4732 6.91204 51.9552 6.18203 52.0718 5.48116C52.1456 4.8454 52.6962 4.35873 53.3172 4.26619Z" fill="#FD71EA"/>
<path d="M46.4165 6.15804C48.2107 5.99011 50.0684 6.71497 51.2759 8.05503C52.2451 9.12091 52.8335 10.5501 52.7974 11.9998C52.8403 13.8557 51.8712 15.6721 50.3737 16.75C49.3977 17.4611 48.2021 17.8279 47.0014 17.869C45.3409 17.8656 43.6874 17.1527 42.5879 15.9017C41.3048 14.5051 40.7816 12.4573 41.2482 10.6203C41.8022 8.23839 43.9807 6.36711 46.4165 6.15804ZM46.4628 8.04304C44.6462 8.24524 43.1162 9.82007 42.9755 11.6399C42.8091 13.2713 43.7783 14.9472 45.2809 15.607C46.6086 16.2616 48.2861 16.0388 49.4285 15.1118C50.4577 14.2961 51.0478 12.9577 50.902 11.6451C50.7939 9.47734 48.6035 7.7243 46.4628 8.04304Z" fill="#FD71EA"/>
<path d="M13.4875 10.7094C13.9301 9.66584 15.0948 9.16718 16.16 9.05408C17.3195 8.98039 18.618 9.17746 19.4568 10.0548C20.2047 10.8979 20.3848 12.0684 20.462 13.1531C20.4929 15.3757 20.4689 17.6 20.4757 19.8225C19.3951 19.8174 18.3161 19.8242 17.2372 19.8191C17.2355 17.9221 17.2475 16.0251 17.2303 14.1298C17.1909 13.4615 17.1343 12.6853 16.594 12.2157C16.0879 11.7668 15.3435 11.8284 14.7294 11.9638C13.7911 12.2637 13.4618 13.3296 13.4515 14.219C13.4309 16.0868 13.4481 17.9547 13.4429 19.8225C12.376 19.8208 11.3108 19.8191 10.2456 19.8225C10.2456 16.2873 10.2404 12.7538 10.2473 9.21859C11.3108 9.2203 12.3743 9.2203 13.4378 9.2203C13.4343 9.71554 13.4309 10.2142 13.4875 10.7094Z" fill="#FD71EA"/>
<path d="M4.9058 9.22202C5.99331 9.21516 7.08082 9.22716 8.16833 9.21687C8.20263 12.7521 8.17176 16.289 8.18377 19.826C7.09111 19.8174 5.99845 19.8208 4.90408 19.8242C4.90408 16.289 4.90065 12.7555 4.9058 9.22202Z" fill="#FD71EA"/>
</svg>
