<svg width="134" height="34" viewBox="0 0 134 34" fill="none" xmlns="http://www.w3.org/2000/svg">
<path d="M22.0316 21.4419C22.0316 23.0527 21.7641 24.5815 21.2235 26.0339C20.6775 27.4918 19.9131 28.764 18.9357 29.8614C17.9584 30.9589 16.7899 31.8271 15.4412 32.4769C14.0871 33.1211 12.6074 33.4488 10.9912 33.4488C9.98658 33.4488 9.04197 33.3068 8.16835 33.0338C7.30019 32.7553 6.47025 32.313 5.70583 31.7015V32.8918H0V0H5.74406L5.78774 11.095C6.44841 10.5654 7.23467 10.1449 8.14651 9.82823C9.05289 9.51155 10.0139 9.3532 11.0185 9.3532C12.4163 9.3532 13.7759 9.66443 15.0973 10.2814C16.4186 10.9039 17.598 11.7557 18.6245 12.8422C19.6565 13.9233 20.4809 15.1955 21.1034 16.6643C21.7259 18.1331 22.0316 19.722 22.0316 21.4419ZM16.2493 21.4419C16.2493 20.3827 16.091 19.4162 15.7743 18.5481C15.4576 17.6744 15.0044 16.9264 14.4366 16.3094C13.8687 15.687 13.1917 15.2119 12.4109 14.8789C11.6246 14.5512 10.7619 14.3874 9.80093 14.3874C9.19486 14.3874 8.49596 14.513 7.69332 14.7642C6.9016 15.0154 6.23547 15.3375 5.70583 15.7306V26.7492C6.9562 27.8849 8.35946 28.4527 9.92105 28.4527C10.8274 28.4527 11.6628 28.2835 12.4491 27.9395C13.2299 27.5955 13.9015 27.115 14.4584 26.4925C15.0154 25.8701 15.4576 25.133 15.7743 24.2757C16.091 23.413 16.2493 22.4684 16.2493 21.4419Z" fill="#373435"/>
<path d="M29.8776 33.4488H24.0898V10.4999H29.8776V33.4488Z" fill="#373435"/>
<path d="M29.9598 8.34311H24.0137V2.39703H29.9598V8.34311Z" fill="#A53692"/>
<path d="M46.0726 32.3404C45.4938 32.7062 44.8167 32.9847 44.0523 33.1703C43.2879 33.3559 42.518 33.4488 41.7536 33.4488C40.4049 33.4488 39.2692 33.2795 38.3465 32.9519C37.4237 32.6243 36.6811 32.111 36.1242 31.4285C35.5727 30.7405 35.1687 29.8669 34.9175 28.8131C34.6663 27.7539 34.5408 26.5144 34.5408 25.0838V15.0591H31.5322V12.4819C33.3778 11.7175 34.8793 10.5817 36.0259 9.07475C37.178 7.56775 37.9643 5.61303 38.3847 3.21057H40.2466V9.90469H46.0343V15.0591H40.2466V25.4824C40.2466 26.0612 40.323 26.5362 40.465 26.9075C40.6124 27.2788 40.8035 27.5682 41.0383 27.7812C41.2786 27.9941 41.5516 28.1361 41.8519 28.218C42.1576 28.2944 42.4798 28.3326 42.8238 28.3326C43.2715 28.3326 43.8121 28.2562 44.4509 28.0978C45.0843 27.9395 45.6248 27.6719 46.0726 27.3061V32.3404Z" fill="#373435"/>
<path d="M81.7437 10.4615L74.0558 33.4487H69.1035L64.5443 19.7765L59.9905 33.4487H55.0327L47.3066 10.4615H53.3292L57.6481 24.8053L61.9725 10.4615H67.045L71.4022 24.8053L75.7212 10.4615H81.7437Z" fill="#A53692"/>
<path d="M88.9235 33.4488H83.1357V10.4999H88.9235V33.4488Z" fill="#A53692"/>
<path d="M89.0002 8.34311H83.0596V2.39703H89.0002V8.34311Z" fill="#373435"/>
<path d="M108.542 26.3942C108.542 27.5299 108.28 28.5401 107.75 29.4246C107.22 30.3091 106.527 31.0517 105.681 31.6414C104.834 32.2366 103.879 32.6898 102.82 32.9901C101.766 33.2958 100.717 33.4487 99.6855 33.4487C97.9328 33.4487 96.3275 33.1211 94.8588 32.4768C93.39 31.8271 92.0959 30.7896 90.9875 29.3645L94.4329 25.8755C95.1208 26.7491 95.9126 27.4317 96.8135 27.9176C97.7089 28.409 98.6754 28.6547 99.7019 28.6547C100.603 28.6547 101.351 28.4855 101.946 28.1578C102.536 27.8248 102.836 27.3334 102.836 26.6727C102.836 25.9847 102.41 25.4114 101.569 24.9473C100.723 24.4832 99.5326 24.03 97.9983 23.5768C97.1029 23.3147 96.2293 22.9762 95.3829 22.5667C94.5366 22.1572 93.7886 21.6548 93.1279 21.0651C92.4672 20.47 91.9376 19.7875 91.539 19.0231C91.1459 18.2586 90.9438 17.3686 90.9438 16.3694C90.9438 15.2556 91.2059 14.2618 91.7192 13.3773C92.2324 12.4873 92.915 11.7502 93.7449 11.155C94.5803 10.5599 95.5304 10.1067 96.5842 9.78997C97.6434 9.47329 98.7191 9.31494 99.8056 9.31494C103.295 9.31494 106.156 10.6363 108.384 13.2735L104.976 16.7243C104.316 15.9053 103.562 15.2556 102.716 14.7805C101.87 14.3055 100.947 14.0707 99.9421 14.0707C99.5982 14.0707 99.2378 14.1144 98.8501 14.2072C98.4679 14.3 98.113 14.4311 97.7799 14.6058C97.4523 14.7751 97.1793 14.9989 96.9718 15.2774C96.7589 15.5559 96.6551 15.8671 96.6551 16.2111C96.6551 16.8172 97.0537 17.3468 97.8618 17.7945C98.6699 18.2423 99.822 18.69 101.329 19.1432C102.306 19.4326 103.229 19.8038 104.103 20.2516C104.976 20.6993 105.741 21.2235 106.401 21.8186C107.062 22.4083 107.586 23.0854 107.969 23.8389C108.351 24.5924 108.542 25.4442 108.542 26.3942Z" fill="#A53692"/>
<path d="M133.315 21.36C133.315 21.7313 133.293 22.1135 133.255 22.5121C133.216 22.9053 133.167 23.3148 133.118 23.7407H114.805C115.018 24.3959 115.318 25.0238 115.7 25.6189C116.083 26.2141 116.552 26.7328 117.104 27.1642C117.661 27.601 118.288 27.945 118.987 28.1961C119.686 28.4473 120.462 28.5729 121.308 28.5729C122.334 28.5729 123.366 28.3927 124.398 28.0378C125.43 27.6829 126.288 27.1969 126.976 26.5908L130.579 30.2C128.996 31.3848 127.44 32.2257 125.922 32.7116C124.404 33.2031 122.799 33.4488 121.106 33.4488C119.391 33.4488 117.786 33.1321 116.295 32.4987C114.799 31.8599 113.505 31.0026 112.408 29.9215C111.31 28.835 110.448 27.5627 109.814 26.094C109.181 24.6307 108.864 23.0636 108.864 21.3983C108.864 19.7329 109.181 18.1713 109.814 16.7025C110.448 15.2392 111.321 13.9616 112.43 12.8805C113.538 11.7939 114.832 10.9366 116.312 10.3033C117.792 9.6699 119.375 9.35321 121.068 9.35321C122.678 9.35321 124.224 9.64806 125.703 10.2432C127.183 10.8384 128.493 11.6628 129.629 12.7221C130.765 13.7759 131.66 15.0372 132.321 16.506C132.982 17.9693 133.315 19.591 133.315 21.36ZM127.33 19.1432C126.883 17.6854 126.08 16.5169 124.933 15.6324C123.781 14.7478 122.482 14.3055 121.029 14.3055C119.604 14.3055 118.321 14.7478 117.185 15.6324C116.05 16.5169 115.258 17.6854 114.805 19.1432H127.33Z" fill="#A53692"/>
</svg>
