<svg width="94" height="24" viewBox="0 0 94 24" fill="none" xmlns="http://www.w3.org/2000/svg">
<path d="M37.6623 0.122669C38.0156 0.0112826 38.393 0.00785585 38.7618 0.00271496C44.8289 0.0112831 50.896 -0.00585434 56.963 0.00956833C58.4691 0.00100018 59.7864 1.41817 59.699 2.91589C59.6921 9.03355 59.7041 15.1529 59.6921 21.2706C59.6921 22.7717 58.277 24.0895 56.7778 23.9952C50.6592 23.9918 44.539 24.0021 38.4205 23.9901C36.9213 23.997 35.5953 22.5901 35.6828 21.0941C35.6845 14.973 35.6777 8.8519 35.6862 2.73081C35.6845 1.55184 36.5576 0.482531 37.6623 0.122669ZM38.2849 1.91512C37.7395 1.99224 37.5079 2.58344 37.5439 3.07354C37.5542 9.09352 37.5319 15.1135 37.5542 21.1318C37.5336 21.7076 38.0208 22.1565 38.5903 22.1291C44.6007 22.1428 50.6112 22.1291 56.6217 22.136C56.939 22.1137 57.3164 22.1034 57.5462 21.8515C57.8447 21.5705 57.8224 21.1163 57.8378 20.7428C57.8275 14.7965 57.843 8.85019 57.8293 2.90389C57.867 2.32468 57.373 1.83973 56.7949 1.87057C50.9045 1.85515 45.0124 1.874 39.1203 1.862C38.8424 1.86714 38.5577 1.84315 38.2849 1.91512Z" fill="#FD71EA"/>
<path d="M76.4627 0.160367C79.6755 -0.0469819 82.902 -0.0247049 86.12 0.0798265C87.5574 0.102104 89.0429 0.282036 90.3225 0.98291C91.9469 1.82259 93.1408 3.39056 93.5833 5.1556C94.1631 7.39017 93.9247 9.719 94.0001 12.0016C93.9161 14.4075 94.1957 16.8803 93.4753 19.2159C92.8749 21.1849 91.2848 22.8043 89.3293 23.4486C87.9725 23.9318 86.5128 23.8993 85.0942 23.9541C82.6327 24.0192 80.1713 24.0107 77.7115 23.913C76.684 23.8856 75.6394 23.793 74.6651 23.4469C73.0939 22.9157 71.7285 21.783 70.9686 20.3058C70.2224 18.8612 70.0354 17.2041 70.0252 15.6002C69.9874 13.4873 69.984 11.3744 70.0114 9.25974C70.0063 7.34048 70.0869 5.32696 71.0183 3.59962C72.0732 1.5981 74.2397 0.348867 76.4627 0.160367ZM73.1882 3.72814C72.2276 4.88142 71.9515 6.43397 71.9309 7.89398C71.9069 9.89207 71.8177 11.8884 71.8828 13.8831C71.96 15.3705 71.8159 16.8905 72.2173 18.3437C72.5209 19.5655 73.3048 20.6691 74.4129 21.2877C76.0305 22.2336 77.9739 21.9817 79.7664 22.0777C82.2142 22.2199 84.662 22.0571 87.1097 21.9937C88.8645 21.92 90.645 20.9741 91.4031 19.3393C92.3895 17.2641 91.9538 14.9062 92.1304 12.6939C92.1442 11.0351 92.0653 9.37627 92.055 7.71748C92.0361 5.92845 91.4803 3.94235 89.8988 2.91588C88.3053 1.76604 86.2486 2.00937 84.3978 1.92369C81.9346 1.77632 79.4714 1.93226 77.0082 2.0008C75.5776 2.04879 74.1196 2.61086 73.1882 3.72814Z" fill="#FD71EA"/>
<path d="M41.0655 4.01775C41.8219 3.82411 42.6899 4.06573 43.141 4.72719C43.9026 5.67997 43.4326 7.24794 42.2902 7.65408C41.1615 8.15446 39.7292 7.25137 39.6846 6.02441C39.5714 5.13332 40.2078 4.24395 41.0655 4.01775Z" fill="#FD71EA"/>
<path d="M88.3173 4.26622C89.096 4.17197 89.904 4.85229 89.8611 5.65769C89.9177 6.51622 89.0034 7.27022 88.1715 7.04745C87.4734 6.91207 86.9553 6.18206 87.072 5.48119C87.1457 4.84543 87.6963 4.35876 88.3173 4.26622Z" fill="#FD71EA"/>
<path d="M81.4166 6.15807C83.2108 5.99014 85.0685 6.715 86.2761 8.05506C87.2452 9.12094 87.8336 10.5501 87.7976 11.9998C87.8404 13.8557 86.8713 15.6721 85.3738 16.75C84.3978 17.4612 83.2022 17.8279 82.0015 17.869C80.3411 17.8656 78.6875 17.1527 77.588 15.9018C76.3049 14.5052 75.7818 12.4574 76.2483 10.6204C76.8024 8.23842 78.9808 6.36714 81.4166 6.15807ZM81.4629 8.04307C79.6464 8.24528 78.1163 9.8201 77.9756 11.64C77.8093 13.2714 78.7784 14.9473 80.281 15.607C81.6087 16.2616 83.2863 16.0389 84.4287 15.1118C85.4579 14.2961 86.0479 12.9578 85.9021 11.6451C85.7941 9.47737 83.6036 7.72433 81.4629 8.04307Z" fill="#FD71EA"/>
<path d="M48.4876 10.7095C48.9302 9.66588 50.0949 9.16721 51.1601 9.05411C52.3197 8.98042 53.6182 9.17749 54.4569 10.0549C55.2048 10.898 55.3849 12.0684 55.4621 13.1531C55.493 15.3757 55.469 17.6 55.4758 19.8226C54.3952 19.8174 53.3163 19.8243 52.2373 19.8191C52.2356 17.9221 52.2476 16.0252 52.2305 14.1299C52.191 13.4616 52.1344 12.6853 51.5941 12.2158C51.0881 11.7668 50.3436 11.8285 49.7295 11.9639C48.7913 12.2637 48.4619 13.3296 48.4516 14.219C48.431 16.0868 48.4482 17.9547 48.443 19.8226C47.3761 19.8208 46.3109 19.8191 45.2457 19.8226C45.2457 16.2873 45.2406 12.7538 45.2474 9.21862C46.3109 9.22033 47.3744 9.22033 48.4379 9.22033C48.4345 9.71557 48.431 10.2142 48.4876 10.7095Z" fill="#FD71EA"/>
<path d="M39.9059 9.22205C40.9934 9.21519 42.0809 9.22719 43.1684 9.2169C43.2028 12.7521 43.1719 16.2891 43.1839 19.826C42.0912 19.8174 40.9986 19.8208 39.9042 19.8243C39.9042 16.2891 39.9008 12.7556 39.9059 9.22205Z" fill="#FD71EA"/>
<path d="M0.237963 0.0116864C2.00747 0.00779078 3.77776 0.0303859 5.54648 0C6.12539 1.18427 6.64267 2.39971 7.2013 3.5941C8.02363 5.4157 8.86469 7.22872 9.68079 9.05343C9.73384 8.99734 9.77442 8.93345 9.8025 8.86255C10.9744 5.90966 12.1626 2.96301 13.3353 0.0109077C15.0205 0.0163616 16.7058 0.0155825 18.3918 0.0109077C18.3933 0.109857 18.3965 0.208805 18.3996 0.307754C17.9338 0.778346 17.4462 1.22634 16.9648 1.67979C16.8423 1.78731 16.7456 1.93379 16.7549 2.10286C16.7541 5.58711 16.7534 9.07135 16.7557 12.5556C16.7487 12.7208 16.8431 12.8641 16.9632 12.9693C17.4454 13.4235 17.933 13.8723 18.3996 14.3429C18.3965 14.4419 18.3933 14.5408 18.3918 14.6398C15.9817 14.6351 13.5725 14.6351 11.1624 14.6398C11.1601 14.5408 11.1569 14.4419 11.1546 14.3429C11.6461 13.8458 12.1533 13.3659 12.6542 12.8789C12.8071 12.7628 12.7993 12.5618 12.8016 12.3904C12.7969 9.61441 12.8024 6.83838 12.7985 4.06158C11.405 7.58323 10.0319 11.1127 8.65092 14.639C8.46991 14.6366 8.2889 14.6366 8.10868 14.6413C6.71523 11.5934 5.3171 8.54778 3.92131 5.50062C3.69739 5.0386 3.51639 4.55399 3.25892 4.10833C3.25268 6.47843 3.26126 8.84853 3.25424 11.2186C3.24565 11.4578 3.31977 11.6993 3.47504 11.8832C4.10622 12.6483 4.72492 13.4243 5.35689 14.1886C5.48328 14.304 5.43101 14.4871 5.44662 14.6382C3.63108 14.6359 1.81554 14.6351 0 14.639C0.0171645 14.5058 -0.0327684 14.3468 0.0538344 14.2338C0.666296 13.4952 1.2733 12.7527 1.8842 12.0133C2.04336 11.8349 2.1838 11.6222 2.1916 11.3744C2.18536 8.5696 2.1916 5.76319 2.18848 2.95756C2.2111 2.59838 1.9154 2.3553 1.71177 2.10052C1.22102 1.50137 0.71935 0.911576 0.234842 0.307754C0.235622 0.208805 0.237183 0.109856 0.237963 0.0116864Z" fill="#FD71EA"/>
<path d="M19.9865 7.51077C21.149 7.46947 22.317 7.50609 23.4811 7.49285C23.719 7.46168 23.9687 7.62218 24.0046 7.86527C24.0639 8.13173 23.8368 8.41533 23.5606 8.40209C22.3888 8.40131 21.2161 8.41299 20.045 8.39663C19.5808 8.35534 19.5356 7.61829 19.9865 7.51077Z" fill="#FD71EA"/>
<path d="M19.9857 10.628C21.1475 10.5852 22.3147 10.6226 23.4779 10.6093C23.7143 10.5782 23.9664 10.734 24.0038 10.9771C24.067 11.2459 23.8353 11.5342 23.5575 11.5186C22.3864 11.5178 21.2146 11.5295 20.0435 11.5124C19.58 11.4703 19.5363 10.7348 19.9857 10.628Z" fill="#FD71EA"/>
<path d="M19.985 13.7445C21.1475 13.7017 22.3147 13.7391 23.4787 13.7258C23.7151 13.6947 23.9664 13.8505 24.0038 14.0936C24.067 14.3608 23.8376 14.6491 23.5606 14.6351C22.4387 14.6405 21.3168 14.6343 20.1948 14.6374C20.0123 14.653 19.818 14.5813 19.7267 14.4154C19.5746 14.1746 19.708 13.8186 19.985 13.7445Z" fill="#FD71EA"/>
<path d="M5.6284 16.8611C5.80239 16.8291 5.98028 16.8447 6.15582 16.8424C11.9559 16.8455 17.7559 16.84 23.5567 16.8447C23.8025 16.8314 24.0217 17.0566 24.0116 17.3005C24.0194 17.542 23.8025 17.7633 23.5591 17.7516C17.7309 17.757 11.9028 17.7508 6.07468 17.7547C5.86012 17.7469 5.6011 17.7976 5.43803 17.6191C5.19929 17.3948 5.3093 16.9436 5.6284 16.8611Z" fill="#FD71EA"/>
<path d="M5.63152 19.9768C5.857 19.9409 6.08716 19.9643 6.3142 19.9596C11.9566 19.9589 17.5991 19.9612 23.2415 19.9581C23.4717 19.9612 23.7619 19.9152 23.9172 20.1326C24.1528 20.4084 23.925 20.8938 23.5567 20.8681C17.6256 20.8712 11.6937 20.8712 5.7626 20.8681C5.25312 20.9032 5.14155 20.0921 5.63152 19.9768Z" fill="#FD71EA"/>
<path d="M5.63308 23.0925C7.07959 23.0528 8.53077 23.087 9.97883 23.0761C14.5056 23.0769 19.0323 23.073 23.5591 23.0777C23.8353 23.0629 24.0654 23.348 24.0046 23.6161C23.9679 23.8592 23.7175 24.0181 23.4795 23.9869C17.5733 23.9838 11.6672 23.9893 5.76182 23.9846C5.54882 23.9939 5.35065 23.8264 5.31632 23.6184C5.26717 23.3956 5.41229 23.1533 5.63308 23.0925Z" fill="#FD71EA"/>
</svg>
