<svg width="20" height="20" viewBox="0 0 20 20" fill="none" xmlns="http://www.w3.org/2000/svg">
<path d="M14.2156 12.4911L13.9705 12.8356L14.2695 13.1345L18.8928 17.7579L17.7578 18.8929L13.1344 14.2696L12.8355 13.9706L12.491 14.2157C10.9917 15.2825 9.14639 15.747 7.32074 15.5172C5.4951 15.2873 3.82245 14.3799 2.63437 12.9748C1.44629 11.5698 0.82951 9.76956 0.9063 7.93111C0.98309 6.09265 1.74784 4.35016 3.04896 3.04905C4.35007 1.74793 6.09256 0.983181 7.93101 0.906392C9.76947 0.829602 11.5697 1.44638 12.9747 2.63446C14.3798 3.82254 15.2872 5.49519 15.5171 7.32083C15.7469 9.14648 15.2824 10.9918 14.2156 12.4911ZM1.68472 8.26159L1.68472 8.26216C1.68671 10.0057 2.3802 11.6772 3.61304 12.91C4.84589 14.1429 6.51742 14.8364 8.26093 14.8384H8.2615C9.56226 14.8384 10.8338 14.4527 11.9154 13.73C12.9969 13.0073 13.8399 11.9802 14.3377 10.7784C14.8354 9.57667 14.9657 8.2543 14.7119 6.97853C14.4581 5.70276 13.8318 4.53089 12.912 3.61111C11.9922 2.69133 10.8203 2.06495 9.54457 1.81118C8.2688 1.55742 6.94642 1.68766 5.74468 2.18544C4.54293 2.68322 3.51577 3.52618 2.79311 4.60773C2.07044 5.68927 1.68472 6.96083 1.68472 8.26159Z" fill="#4F4F4F" stroke="#4F4F4F"/>
</svg>
