<svg width="20" height="20" viewBox="0 0 20 20" fill="none" xmlns="http://www.w3.org/2000/svg">
<path d="M14.0195 12.4921L13.7765 12.8354L14.0731 13.1336L18.6727 17.7579L17.5456 18.891L12.9498 14.2705L12.6501 13.9692L12.3044 14.2164C10.8137 15.2828 8.97937 15.7469 7.1649 15.5172C5.35039 15.2875 3.68734 14.3808 2.50572 12.9758C1.32403 11.5708 0.710226 9.77024 0.786639 7.93099C0.863053 6.09175 1.62405 4.34902 2.91804 3.0481C4.21195 1.74726 5.94428 0.983115 7.77148 0.906387C9.59866 0.829659 11.3882 1.4459 12.7854 2.63361C14.1826 3.82138 15.0855 5.49411 15.3142 7.32051C15.5429 9.14692 15.0806 10.9928 14.0195 12.4921ZM1.55558 8.26159L1.55558 8.26216C1.55756 10.0048 2.24699 11.6761 3.47347 12.9091C4.70004 14.1422 6.36362 14.8364 8.09941 14.8384H8.09998C9.39494 14.8384 10.6606 14.4523 11.7369 13.7293C12.8131 13.0063 13.6516 11.979 14.1466 10.7775C14.6416 9.57613 14.771 8.25427 14.5187 6.97903C14.2664 5.70377 13.6436 4.532 12.7285 3.61205C11.8134 2.69207 10.6472 2.06526 9.37723 1.81128C8.10721 1.55731 6.79084 1.68768 5.59467 2.1858C4.39854 2.68391 3.37662 3.52725 2.65783 4.60875C1.93906 5.69023 1.55558 6.96142 1.55558 8.26159Z" fill="#4F4F4F" stroke="#4F4F4F"/>
</svg>
