<svg width="136" height="56" viewBox="0 0 136 56" fill="none" xmlns="http://www.w3.org/2000/svg">
<path d="M22.4754 25.0156C22.4754 26.8948 22.2025 28.6784 21.651 30.3729C21.094 32.0737 20.3142 33.558 19.3172 34.8384C18.3201 36.1188 17.1281 37.1316 15.7523 37.8897C14.3709 38.6413 12.8614 39.0235 11.2126 39.0235C10.1877 39.0235 9.22411 38.8579 8.3329 38.5394C7.44725 38.2145 6.60059 37.6986 5.82077 36.9851V38.3738H0V0H5.85976L5.90432 12.9441C6.57831 12.3262 7.38041 11.8357 8.31062 11.4663C9.23525 11.0968 10.2156 10.9121 11.2405 10.9121C12.6664 10.9121 14.0534 11.2752 15.4014 11.995C16.7493 12.7212 17.9525 13.7149 18.9997 14.9826C20.0524 16.2439 20.8935 17.7281 21.5285 19.4417C22.1635 21.1553 22.4754 23.009 22.4754 25.0156ZM16.5767 25.0156C16.5767 23.7798 16.4151 22.6523 16.0921 21.6394C15.769 20.6202 15.3067 19.7475 14.7274 19.0276C14.1481 18.3014 13.4574 17.7472 12.6609 17.3587C11.8588 16.9765 10.9787 16.7853 9.99836 16.7853C9.38008 16.7853 8.6671 16.9319 7.8483 17.2249C7.04063 17.5179 6.36107 17.8938 5.82077 18.3524V31.2074C7.09633 32.5324 8.52785 33.1949 10.1209 33.1949C11.0455 33.1949 11.8978 32.9974 12.6999 32.5961C13.4964 32.1947 14.1815 31.6342 14.7497 30.908C15.3178 30.1818 15.769 29.3218 16.0921 28.3217C16.4151 27.3152 16.5767 26.2132 16.5767 25.0156Z" fill="#373435"/>
<path d="M30.4795 39.0236H24.5752V12.2499H30.4795V39.0236Z" fill="#373435"/>
<path d="M30.5634 9.7336H24.4976V2.79651H30.5634V9.7336Z" fill="#A53692"/>
<path d="M47.0007 37.7304C46.4103 38.1572 45.7196 38.4821 44.9398 38.6987C44.1599 38.9153 43.3746 39.0236 42.5947 39.0236C41.2189 39.0236 40.0603 38.8261 39.119 38.4439C38.1776 38.0617 37.4201 37.4629 36.852 36.6666C36.2894 35.864 35.8772 34.8447 35.621 33.6153C35.3647 32.3795 35.2366 30.9335 35.2366 29.2645V17.5689H32.1675V14.5622C34.0502 13.6704 35.582 12.3454 36.7517 10.5872C37.927 8.82905 38.7291 6.54853 39.158 3.74567H41.0574V11.5555H46.9617V17.5689H41.0574V29.7295C41.0574 30.4048 41.1354 30.959 41.2802 31.3921C41.4306 31.8253 41.6255 32.1629 41.8651 32.4114C42.1101 32.6598 42.3886 32.8254 42.695 32.921C43.0069 33.0101 43.3356 33.0547 43.6865 33.0547C44.1432 33.0547 44.6947 32.9656 45.3464 32.7808C45.9925 32.5961 46.544 32.2839 47.0007 31.8571V37.7304Z" fill="#373435"/>
<path d="M83.39 12.2051L75.5473 39.0235H70.4952L65.8441 23.0726L61.1987 39.0235H56.141L48.2593 12.2051H54.4031L58.8091 28.9395L63.2206 12.2051H68.3952L72.8402 28.9395L77.2462 12.2051H83.39Z" fill="#A53692"/>
<path d="M90.7149 39.0236H84.8105V12.2499H90.7149V39.0236Z" fill="#A53692"/>
<path d="M90.7927 9.7336H84.7324V2.79651H90.7927V9.7336Z" fill="#373435"/>
<path d="M110.728 30.7933C110.728 32.1182 110.461 33.2967 109.921 34.3287C109.38 35.3607 108.673 36.227 107.81 36.915C106.946 37.6093 105.971 38.138 104.891 38.4884C103.816 38.8451 102.746 39.0235 101.694 39.0235C99.9056 39.0235 98.268 38.6413 96.7697 37.8896C95.2713 37.1316 93.9512 35.9212 92.8204 34.2586L96.3352 30.1881C97.037 31.2073 97.8447 32.0036 98.7638 32.5705C99.6773 33.1438 100.663 33.4305 101.71 33.4305C102.629 33.4305 103.393 33.233 104 32.8508C104.601 32.4622 104.908 31.8889 104.908 31.1181C104.908 30.3155 104.473 29.6466 103.615 29.1052C102.752 28.5637 101.538 28.035 99.9725 27.5063C99.059 27.2005 98.1678 26.8055 97.3044 26.3278C96.441 25.85 95.6779 25.264 95.0039 24.576C94.3299 23.8816 93.7896 23.0854 93.383 22.1936C92.982 21.3017 92.7759 20.2634 92.7759 19.0977C92.7759 17.7982 93.0432 16.6388 93.5668 15.6068C94.0904 14.5685 94.7867 13.7085 95.6333 13.0142C96.4856 12.3198 97.4548 11.7911 98.5298 11.4216C99.6104 11.0522 100.708 10.8674 101.816 10.8674C105.375 10.8674 108.294 12.409 110.567 15.4858L107.091 19.5117C106.417 18.5562 105.648 17.7982 104.785 17.244C103.922 16.6897 102.98 16.4158 101.955 16.4158C101.605 16.4158 101.237 16.4668 100.841 16.5751C100.452 16.6834 100.089 16.8363 99.7497 17.0401C99.4155 17.2376 99.137 17.4988 98.9253 17.8236C98.7081 18.1485 98.6022 18.5116 98.6022 18.9129C98.6022 19.62 99.0088 20.2379 99.8332 20.7603C100.658 21.2826 101.833 21.805 103.37 22.3337C104.367 22.6713 105.309 23.1045 106.2 23.6268C107.091 24.1492 107.871 24.7607 108.545 25.4551C109.219 26.1431 109.754 26.9329 110.144 27.812C110.533 28.6911 110.728 29.6849 110.728 30.7933Z" fill="#A53692"/>
<path d="M136 24.92C136 25.3532 135.978 25.7991 135.939 26.2641C135.9 26.7228 135.85 27.2005 135.8 27.6974H117.117C117.335 28.4618 117.641 29.1944 118.031 29.8887C118.421 30.5831 118.9 31.1882 119.462 31.6915C120.031 32.2011 120.671 32.6024 121.384 32.8954C122.097 33.1885 122.888 33.335 123.751 33.335C124.799 33.335 125.851 33.1248 126.904 32.7107C127.957 32.2966 128.831 31.7297 129.533 31.0226L133.209 35.2333C131.594 36.6156 130.007 37.5966 128.458 38.1636C126.91 38.7369 125.272 39.0235 123.545 39.0235C121.796 39.0235 120.159 38.6541 118.638 37.9151C117.112 37.1698 115.792 36.1697 114.672 34.9084C113.553 33.6407 112.672 32.1565 112.026 30.4429C111.38 28.7357 111.057 26.9075 111.057 24.9646C111.057 23.0217 111.38 21.1998 112.026 19.4863C112.672 17.7791 113.564 16.2885 114.694 15.0272C115.825 13.7595 117.145 12.7594 118.655 12.0205C120.164 11.2815 121.78 10.912 123.506 10.912C125.15 10.912 126.726 11.256 128.235 11.9504C129.745 12.6447 131.082 13.6066 132.24 14.8424C133.399 16.0719 134.312 17.5434 134.986 19.2569C135.66 20.9641 136 22.8561 136 24.92ZM129.895 22.3337C129.439 20.6329 128.62 19.2697 127.45 18.2377C126.275 17.2058 124.949 16.6898 123.467 16.6898C122.014 16.6898 120.705 17.2058 119.546 18.2377C118.387 19.2697 117.58 20.6329 117.117 22.3337H129.895Z" fill="#A53692"/>
<path d="M21.3779 50.8721H20.2862V56H19.4228V50.8721H18.4258V49.8528H21.3779V50.8721ZM31.8776 56H28.8698V49.8783H31.8776V50.9039H29.7443V52.42H30.797V53.4392H29.7443V54.9744H31.8776V56ZM42.4943 56H40.8845C39.8874 56 39.3861 55.3821 39.3861 54.1399V51.5919C39.3861 50.458 39.8763 49.891 40.8566 49.891H42.4943V50.8912H40.8009C40.4333 50.8912 40.2551 51.0886 40.2551 51.4836L40.2606 54.159V54.1973C40.2606 54.7196 40.4166 54.9744 40.7285 54.9744H42.4943V56ZM50.0306 56V49.8783H50.9107V52.42H52.3812V49.8783H53.2502V56H52.3812V53.4392H50.9107V56H50.0306ZM64.0729 56H63.0536L61.778 52.3818V56H60.9091V49.8783H61.7947L63.1984 53.9042V49.8783H64.0729V56ZM74.1938 51.1651C74.1938 50.9803 74.0991 50.8912 73.9097 50.8912H72.8681C72.6899 50.8912 72.6007 50.9803 72.6007 51.1651V54.6177C72.6007 54.7387 72.6286 54.8343 72.6787 54.8916C72.7289 54.9489 72.7846 54.9744 72.8514 54.9744H73.9877C74.049 54.9744 74.0991 54.9426 74.1381 54.8725C74.1771 54.7961 74.1938 54.7133 74.1938 54.6177V51.1651ZM75.0627 54.8215C75.0572 55.6051 74.7285 56 74.0768 56H72.7233C72.066 56 71.7374 55.6178 71.7374 54.8598V50.9867C71.7374 50.2414 72.0382 49.8719 72.6509 49.8719H74.0824C74.7341 49.8719 75.0627 50.2414 75.0627 50.9867V54.8215ZM85.0611 56H82.7049V49.8401H83.5739V54.9681H85.0611V56ZM94.9592 51.1651C94.9592 50.9803 94.8645 50.8912 94.6807 50.8912H93.6335C93.4553 50.8912 93.3661 50.9803 93.3661 51.1651V54.6177C93.3661 54.7387 93.394 54.8343 93.4441 54.8916C93.4943 54.9489 93.55 54.9744 93.6168 54.9744H94.7531C94.8199 54.9744 94.8645 54.9426 94.9035 54.8725C94.9425 54.7961 94.9592 54.7133 94.9592 54.6177V51.1651ZM95.8281 54.8215C95.8226 55.6051 95.4939 56 94.8422 56H93.4887C92.8314 56 92.5028 55.6178 92.5028 54.8598V50.9867C92.5028 50.2414 92.8091 49.8719 93.4218 49.8719H94.8478C95.4995 49.8719 95.8281 50.2414 95.8281 50.9867V54.8215ZM106.679 56H104.829C103.916 56 103.459 55.4331 103.459 54.3056V51.4772C103.459 50.4134 103.955 49.8783 104.941 49.8783H106.679V50.9039H104.796C104.479 50.9039 104.323 51.0886 104.323 51.4645V54.382C104.323 54.777 104.456 54.9744 104.729 54.9744H105.799V53.4392H104.712V52.4073H106.679V56ZM117.563 49.8783L116.22 53.2672V56H115.351V53.2545L114.059 49.8783H114.978L115.775 52.0888L115.786 52.127L115.791 52.1142L116.644 49.8783H117.563Z" fill="#373435"/>
</svg>
