<svg width="140" height="140" viewBox="0 0 140 140" fill="none" xmlns="http://www.w3.org/2000/svg">
<path d="M1.38728 0.0681968C11.7032 0.0454636 22.0237 0.177319 32.335 0C35.71 6.91089 38.7256 14.0036 41.9823 20.9736C46.7764 31.6037 51.6797 42.1837 56.4373 52.8319C56.7466 52.5045 56.9832 52.1317 57.1469 51.718C63.9787 34.4862 70.906 17.2909 77.7423 0.0636526C87.567 0.0954791 97.3917 0.0909324 107.221 0.0636526C107.23 0.641075 107.248 1.2185 107.266 1.79592C104.551 4.54209 101.708 7.1564 98.9018 9.80255C98.1877 10.43 97.6237 11.2847 97.6783 12.2714C97.6737 32.6039 97.6692 52.9365 97.6828 73.269C97.6419 74.2329 98.1922 75.0695 98.8927 75.6833C101.704 78.334 104.546 80.9529 107.266 83.699C107.248 84.2764 107.23 84.8539 107.221 85.4313C93.1707 85.404 79.1251 85.404 65.0749 85.4313C65.0612 84.8539 65.043 84.2764 65.0294 83.699C67.8949 80.7983 70.8514 77.9975 73.7716 75.1559C74.663 74.4784 74.6176 73.3054 74.6312 72.3052C74.6039 56.1055 74.6358 39.9058 74.613 23.7016C66.4895 44.2524 58.4842 64.8487 50.4334 85.4267C49.3781 85.4131 48.3229 85.4131 47.2722 85.4404C39.1486 67.6539 30.9978 49.8811 22.8606 32.0993C21.5552 29.4031 20.4999 26.5751 18.9989 23.9744C18.9625 37.8053 19.0126 51.6361 18.9716 65.467C18.9216 66.8628 19.3537 68.2723 20.2589 69.3453C23.9386 73.8101 27.5455 78.3385 31.2298 82.7988C31.9666 83.4717 31.6619 84.5401 31.7528 85.4222C21.1686 85.4085 10.5843 85.404 0 85.4267C0.100066 84.6493 -0.191034 83.7218 0.313845 83.0625C3.88439 78.7523 7.4231 74.4193 10.9845 70.1046C11.9124 69.0634 12.7312 67.8222 12.7766 66.3763C12.7403 50.0084 12.7766 33.6315 12.7584 17.259C12.8903 15.163 11.1665 13.7445 9.97933 12.2577C7.11835 8.76137 4.19369 5.31956 1.36909 1.79592C1.37364 1.2185 1.38273 0.641073 1.38728 0.0681968Z" fill="#FD71EA"/>
<path d="M116.518 43.8296C123.295 43.5886 130.104 43.8023 136.891 43.725C138.278 43.5431 139.733 44.4797 139.943 45.8983C140.288 47.4532 138.965 49.1082 137.355 49.0309C130.523 49.0264 123.686 49.0946 116.859 48.9991C114.153 48.7581 113.889 44.457 116.518 43.8296Z" fill="#FD71EA"/>
<path d="M116.513 62.0207C123.286 61.7706 130.091 61.9888 136.872 61.9115C138.251 61.7297 139.72 62.639 139.938 64.0576C140.306 65.6261 138.956 67.3084 137.336 67.2175C130.509 67.2129 123.677 67.2811 116.85 67.1811C114.148 66.9356 113.894 62.6436 116.513 62.0207Z" fill="#FD71EA"/>
<path d="M116.509 80.2072C123.286 79.9571 130.091 80.1754 136.877 80.0981C138.255 79.9162 139.72 80.8255 139.938 82.2441C140.306 83.8036 138.969 85.4858 137.355 85.404C130.814 85.4358 124.273 85.3995 117.732 85.4176C116.668 85.5086 115.536 85.0903 115.003 84.1218C114.116 82.7169 114.894 80.6391 116.509 80.2072Z" fill="#FD71EA"/>
<path d="M32.8126 98.3938C33.8269 98.2073 34.864 98.2983 35.8874 98.2846C69.7007 98.3028 103.514 98.271 137.332 98.2983C138.765 98.221 140.043 99.535 139.984 100.958C140.029 102.368 138.765 103.659 137.345 103.591C103.368 103.622 69.3914 103.586 35.4143 103.609C34.1635 103.563 32.6534 103.859 31.7028 102.818C30.311 101.508 30.9523 98.8757 32.8126 98.3938Z" fill="#FD71EA"/>
<path d="M32.8308 116.576C34.1453 116.367 35.4871 116.503 36.8107 116.476C69.7052 116.471 102.6 116.485 135.494 116.467C136.836 116.485 138.528 116.217 139.433 117.485C140.807 119.095 139.479 121.927 137.332 121.777C102.754 121.795 68.1724 121.795 33.595 121.777C30.6248 121.982 29.9744 117.249 32.8308 116.576Z" fill="#FD71EA"/>
<path d="M32.8399 134.758C41.2728 134.526 49.7329 134.726 58.1749 134.662C84.5651 134.667 110.955 134.644 137.345 134.671C138.956 134.585 140.297 136.249 139.943 137.813C139.729 139.232 138.269 140.159 136.882 139.977C102.45 139.959 68.0177 139.991 33.5904 139.964C32.3487 140.018 31.1934 139.041 30.9932 137.827C30.7067 136.526 31.5527 135.112 32.8399 134.758Z" fill="#FD71EA"/>
</svg>
