<svg width="64" height="56" viewBox="0 0 64 56" fill="none" xmlns="http://www.w3.org/2000/svg">
<g clip-path="url(#clip0_3242_62)">
<path d="M0 2C0 0.89543 0.895431 0 2 0H62C63.1046 0 64 0.895431 64 2V54C64 55.1046 63.1046 56 62 56H2C0.895431 56 0 55.1046 0 54V2Z" fill="#42163A"/>
<path d="M36 38V34.13C36.0375 33.6532 35.9731 33.1738 35.811 32.7238C35.6489 32.2738 35.3929 31.8634 35.06 31.52C38.2 31.17 41.5 29.98 41.5 24.52C41.4997 23.1238 40.9627 21.7812 40 20.77C40.4559 19.5485 40.4236 18.1983 39.91 17C39.91 17 38.73 16.65 36 18.48C33.708 17.8588 31.292 17.8588 29 18.48C26.27 16.65 25.09 17 25.09 17C24.5764 18.1983 24.5441 19.5485 25 20.77C24.0301 21.7887 23.4925 23.1435 23.5 24.55C23.5 29.97 26.8 31.16 29.94 31.55C29.611 31.89 29.3573 32.2954 29.1953 32.7399C29.0334 33.1844 28.9668 33.6581 29 34.13V38M29 35C24 36.5 24 32.5 22 32L29 35Z" stroke="white" stroke-width="2" stroke-linecap="round" stroke-linejoin="round"/>
</g>
<defs>
<clipPath id="clip0_3242_62">
<rect width="64" height="56" fill="white"/>
</clipPath>
</defs>
</svg>
