<svg width="59" height="24" viewBox="18 0 59 24" fill="none" xmlns="http://www.w3.org/2000/svg">
<path d="M41.4627 0.160367C44.6755 -0.0469819 47.902 -0.0247049 51.12 0.0798265C52.5574 0.102104 54.0429 0.282036 55.3225 0.98291C56.9469 1.82259 58.1408 3.39056 58.5833 5.1556C59.1631 7.39017 58.9247 9.719 59.0001 12.0016C58.9161 14.4075 59.1957 16.8803 58.4753 19.2159C57.8749 21.1849 56.2848 22.8043 54.3293 23.4486C52.9725 23.9318 51.5128 23.8993 50.0942 23.9541C47.6327 24.0192 45.1713 24.0107 42.7115 23.913C41.684 23.8856 40.6394 23.793 39.6651 23.4469C38.0939 22.9157 36.7285 21.783 35.9686 20.3058C35.2224 18.8612 35.0354 17.2041 35.0252 15.6002C34.9874 13.4873 34.984 11.3744 35.0114 9.25974C35.0063 7.34048 35.0869 5.32696 36.0183 3.59962C37.0732 1.5981 39.2397 0.348867 41.4627 0.160367ZM38.1882 3.72814C37.2276 4.88142 36.9515 6.43397 36.9309 7.89398C36.9069 9.89207 36.8177 11.8884 36.8828 13.8831C36.96 15.3705 36.8159 16.8905 37.2173 18.3437C37.5209 19.5655 38.3048 20.6691 39.4129 21.2877C41.0305 22.2336 42.9739 21.9817 44.7664 22.0777C47.2142 22.2199 49.662 22.0571 52.1097 21.9937C53.8645 21.92 55.645 20.9741 56.4031 19.3393C57.3895 17.2641 56.9538 14.9062 57.1304 12.6939C57.1442 11.0351 57.0653 9.37627 57.055 7.71748C57.0361 5.92845 56.4803 3.94235 54.8988 2.91588C53.3053 1.76604 51.2486 2.00937 49.3978 1.92369C46.9346 1.77632 44.4714 1.93226 42.0082 2.0008C40.5776 2.04879 39.1196 2.61086 38.1882 3.72814Z" fill="#42163A"/>
<path d="M53.3173 4.26622C54.096 4.17197 54.904 4.85229 54.8611 5.65769C54.9177 6.51622 54.0034 7.27022 53.1715 7.04745C52.4734 6.91207 51.9553 6.18206 52.072 5.48119C52.1457 4.84543 52.6963 4.35876 53.3173 4.26622Z" fill="#42163A"/>
<path d="M46.4166 6.15807C48.2108 5.99014 50.0685 6.715 51.2761 8.05506C52.2452 9.12094 52.8336 10.5501 52.7976 11.9998C52.8404 13.8557 51.8713 15.6721 50.3738 16.75C49.3978 17.4612 48.2022 17.8279 47.0015 17.869C45.3411 17.8656 43.6875 17.1527 42.588 15.9018C41.3049 14.5052 40.7818 12.4574 41.2483 10.6204C41.8024 8.23842 43.9808 6.36714 46.4166 6.15807ZM46.4629 8.04307C44.6464 8.24528 43.1163 9.8201 42.9756 11.64C42.8093 13.2714 43.7784 14.9473 45.281 15.607C46.6087 16.2616 48.2863 16.0389 49.4287 15.1118C50.4579 14.2961 51.0479 12.9578 50.9021 11.6451C50.7941 9.47737 48.6036 7.72433 46.4629 8.04307Z" fill="#42163A"/>
</svg>
