<svg width="141" height="141" viewBox="0 0 141 141" fill="none" xmlns="http://www.w3.org/2000/svg">
<path d="M11.4839 0.735874C14.2439 -0.144126 17.1839 0.0458751 20.0339 0.0158751C54.3839 0.0358751 88.7239 0.0158754 123.074 0.0258754C131.784 -0.504125 139.984 7.18587 139.994 15.9159C140.054 51.9359 140.024 87.9659 140.004 123.996C140.064 132.796 131.824 140.576 123.034 140.026C87.7039 140.026 52.3739 140.036 17.0439 140.026C8.29392 140.586 0.0339208 132.876 0.0439208 124.106C0.0139208 88.0459 0.00392101 51.9959 0.053921 15.9459C0.033921 9.07587 5.09392 2.88587 11.4839 0.735874ZM13.2539 11.8759C11.3039 13.2359 10.9039 15.7259 10.8839 17.9359C10.8839 51.3059 10.8939 84.6759 10.8739 118.046C10.9239 120.816 10.5539 123.726 11.6539 126.356C12.8839 128.666 15.6639 129.226 18.0639 129.176C36.8339 129.166 55.6039 129.146 74.3739 129.186C74.4339 115.866 74.4039 102.546 74.3839 89.2259C68.4639 89.2159 62.5539 89.1959 56.6339 89.2359C56.5639 83.5859 56.6239 77.9259 56.6039 72.2659C62.5339 72.2359 68.4639 72.2759 74.3939 72.2459C74.4539 65.6959 74.3239 59.1459 74.4539 52.5959C74.9139 41.2859 84.0339 31.2459 95.0839 29.2059C100.594 27.8659 106.174 29.5459 111.714 29.7059C111.834 35.0259 111.774 40.3459 111.754 45.6659C107.504 45.7259 103.254 45.5759 99.0039 45.7059C95.1539 45.8559 91.5239 49.1859 91.4339 53.1159C91.2639 59.4959 91.4039 65.8759 91.3839 72.2459C97.8539 72.2559 104.334 72.2559 110.814 72.2459C110.134 77.9259 109.814 83.6859 108.644 89.2859C102.884 89.1359 97.1239 89.2559 91.3639 89.2059C91.4239 102.536 91.2539 115.856 91.4439 129.176C102.024 129.126 112.594 129.236 123.174 129.126C126.504 129.266 129.354 126.456 129.134 123.096C129.214 88.0659 129.134 53.0259 129.174 17.9859C129.194 15.6359 128.684 12.7859 126.324 11.6559C123.714 10.5659 120.824 10.9159 118.064 10.8759C86.0639 10.8859 54.0639 10.8859 22.0639 10.8759C19.1139 10.9059 15.9939 10.5359 13.2539 11.8759Z" fill="black"/>
</svg>
