<svg width="141" height="141" viewBox="0 0 141 141" fill="none" xmlns="http://www.w3.org/2000/svg">
<path d="M37.7639 0.935753C56.4939 -0.274247 75.3039 -0.144248 94.0639 0.465752C102.444 0.595752 111.104 1.64576 118.564 5.73576C128.034 10.6358 134.994 19.7857 137.574 30.0857C140.954 43.1257 139.564 56.7158 140.004 70.0358C139.514 84.0758 141.144 98.5057 136.944 112.136C133.444 123.626 124.174 133.076 112.774 136.836C104.864 139.656 96.3539 139.466 88.0839 139.786C73.7339 140.166 59.3839 140.116 45.0439 139.546C39.0539 139.386 32.9639 138.846 27.2839 136.826C18.1239 133.726 10.1639 127.116 5.73392 118.496C1.38392 110.066 0.293924 100.396 0.233924 91.0358C0.0139241 78.7058 -0.00607771 66.3758 0.153922 54.0358C0.123922 42.8358 0.593917 31.0857 6.02392 21.0057C12.1739 9.32574 24.8039 2.03575 37.7639 0.935753ZM18.6739 21.7557C13.0739 28.4857 11.4639 37.5458 11.3439 46.0658C11.2039 57.7258 10.6839 69.3757 11.0639 81.0157C11.5139 89.6957 10.6739 98.5657 13.0139 107.046C14.7839 114.176 19.3539 120.616 25.8139 124.226C35.2439 129.746 46.5739 128.276 57.0239 128.836C71.2939 129.666 85.5639 128.716 99.8339 128.346C110.064 127.916 120.444 122.396 124.864 112.856C130.614 100.746 128.074 86.9857 129.104 74.0757C129.184 64.3957 128.724 54.7158 128.664 45.0358C128.554 34.5958 125.314 23.0058 116.094 17.0158C106.804 10.3058 94.8139 11.7257 84.0239 11.2257C69.6639 10.3657 55.3039 11.2757 40.9439 11.6757C32.6039 11.9557 24.1039 15.2357 18.6739 21.7557Z" fill="black"/>
<path d="M106.874 24.8958C111.414 24.3458 116.124 28.3158 115.874 33.0158C116.204 38.0258 110.874 42.4258 106.024 41.1258C101.954 40.3358 98.934 36.0758 99.614 31.9858C100.044 28.2758 103.254 25.4358 106.874 24.8958Z" fill="black"/>
<path d="M66.6439 35.9358C77.1039 34.9558 87.9339 39.1858 94.9739 47.0058C100.624 53.2258 104.054 61.5658 103.844 70.0258C104.094 80.8558 98.4439 91.4558 89.7139 97.7458C84.0239 101.896 77.0539 104.036 70.0539 104.276C60.3739 104.256 50.7339 100.096 44.3239 92.7958C36.8439 84.6458 33.7939 72.6958 36.5139 61.9758C39.7439 48.0758 52.4439 37.1558 66.6439 35.9358ZM66.9139 46.9358C56.3239 48.1158 47.4039 57.3058 46.5839 67.9258C45.6139 77.4458 51.2639 87.2258 60.0239 91.0758C67.7639 94.8958 77.5439 93.5958 84.2039 88.1858C90.2039 83.4258 93.6439 75.6158 92.7939 67.9558C92.1639 55.3058 79.3939 45.0758 66.9139 46.9358Z" fill="black"/>
</svg>
