<svg width="549" height="141" viewBox="0 0 549 141" fill="none" xmlns="http://www.w3.org/2000/svg">
<path d="M219.564 0.715759C221.624 0.0657593 223.824 0.0457623 225.974 0.0157623C261.344 0.0657623 296.714 -0.0342444 332.084 0.0557556C340.864 0.00575563 348.544 8.27576 348.034 17.0158C347.994 52.7158 348.064 88.4258 347.994 124.126C347.994 132.886 339.744 140.576 331.004 140.026C295.334 140.006 259.654 140.066 223.984 139.996C215.244 140.036 207.514 131.826 208.024 123.096C208.034 87.3758 207.994 51.6558 208.044 15.9358C208.034 9.05576 213.124 2.81576 219.564 0.715759ZM223.194 11.1758C220.014 11.6258 218.664 15.0758 218.874 17.9358C218.934 53.0658 218.804 88.1958 218.934 123.316C218.814 126.676 221.654 129.296 224.974 129.136C260.014 129.216 295.054 129.136 330.094 129.176C331.944 129.046 334.144 128.986 335.484 127.516C337.224 125.876 337.094 123.226 337.184 121.046C337.124 86.3457 337.214 51.6458 337.134 16.9458C337.354 13.5658 334.474 10.7358 331.104 10.9158C296.764 10.8258 262.414 10.9358 228.064 10.8658C226.444 10.8958 224.784 10.7558 223.194 11.1758Z" fill="black"/>
<path d="M445.764 0.935753C464.494 -0.274247 483.304 -0.144248 502.064 0.465752C510.444 0.595752 519.104 1.64576 526.564 5.73576C536.034 10.6358 542.994 19.7857 545.574 30.0857C548.954 43.1257 547.564 56.7158 548.004 70.0358C547.514 84.0758 549.144 98.5057 544.944 112.136C541.444 123.626 532.174 133.076 520.774 136.836C512.864 139.656 504.354 139.466 496.084 139.786C481.734 140.166 467.384 140.116 453.044 139.546C447.054 139.386 440.964 138.846 435.284 136.826C426.124 133.726 418.164 127.116 413.734 118.496C409.384 110.066 408.294 100.396 408.234 91.0358C408.014 78.7058 407.994 66.3758 408.154 54.0358C408.124 42.8358 408.594 31.0857 414.024 21.0057C420.174 9.32574 432.804 2.03575 445.764 0.935753ZM426.674 21.7557C421.074 28.4857 419.464 37.5458 419.344 46.0658C419.204 57.7258 418.684 69.3757 419.064 81.0157C419.514 89.6957 418.674 98.5657 421.014 107.046C422.784 114.176 427.354 120.616 433.814 124.226C443.244 129.746 454.574 128.276 465.024 128.836C479.294 129.666 493.564 128.716 507.834 128.346C518.064 127.916 528.444 122.396 532.864 112.856C538.614 100.746 536.074 86.9857 537.104 74.0757C537.184 64.3957 536.724 54.7158 536.664 45.0358C536.554 34.5958 533.314 23.0058 524.094 17.0158C514.804 10.3058 502.814 11.7257 492.024 11.2257C477.664 10.3657 463.304 11.2757 448.944 11.6757C440.604 11.9557 432.104 15.2357 426.674 21.7557Z" fill="black"/>
<path d="M239.404 23.4458C243.814 22.3158 248.874 23.7258 251.504 27.5858C255.944 33.1458 253.204 42.2958 246.544 44.6658C239.964 47.5858 231.614 42.3158 231.354 35.1558C230.694 29.9558 234.404 24.7658 239.404 23.4458Z" fill="black"/>
<path d="M514.874 24.8957C519.414 24.3457 524.124 28.3158 523.874 33.0158C524.204 38.0258 518.874 42.4258 514.024 41.1258C509.954 40.3358 506.934 36.0758 507.614 31.9858C508.044 28.2758 511.254 25.4357 514.874 24.8957Z" fill="black"/>
<path d="M474.644 35.9358C485.104 34.9558 495.934 39.1858 502.974 47.0058C508.624 53.2258 512.054 61.5658 511.844 70.0258C512.094 80.8558 506.444 91.4558 497.714 97.7458C492.024 101.896 485.054 104.036 478.054 104.276C468.374 104.256 458.734 100.096 452.324 92.7957C444.844 84.6457 441.794 72.6958 444.514 61.9758C447.744 48.0758 460.444 37.1558 474.644 35.9358ZM474.914 46.9358C464.324 48.1158 455.404 57.3058 454.584 67.9258C453.614 77.4458 459.264 87.2257 468.024 91.0757C475.764 94.8957 485.544 93.5958 492.204 88.1858C498.204 83.4258 501.644 75.6158 500.794 67.9557C500.164 55.3057 487.394 45.0758 474.914 46.9358Z" fill="black"/>
<path d="M282.674 62.4958C285.254 56.4058 292.044 53.4958 298.254 52.8358C305.014 52.4058 312.584 53.5558 317.474 58.6758C321.834 63.5958 322.884 70.4258 323.334 76.7558C323.514 89.7258 323.374 102.706 323.414 115.676C317.114 115.646 310.824 115.686 304.534 115.656C304.524 104.586 304.594 93.5157 304.494 82.4557C304.264 78.5557 303.934 74.0258 300.784 71.2858C297.834 68.6658 293.494 69.0258 289.914 69.8158C284.444 71.5658 282.524 77.7858 282.464 82.9758C282.344 93.8758 282.444 104.776 282.414 115.676C276.194 115.666 269.984 115.656 263.774 115.676C263.774 95.0458 263.744 74.4258 263.784 53.7957C269.984 53.8057 276.184 53.8058 282.384 53.8058C282.364 56.6958 282.344 59.6058 282.674 62.4958Z" fill="black"/>
<path d="M232.644 53.8158C238.984 53.7758 245.324 53.8458 251.664 53.7858C251.864 74.4158 251.684 95.0558 251.754 115.696C245.384 115.646 239.014 115.666 232.634 115.686C232.634 95.0558 232.614 74.4358 232.644 53.8158Z" fill="black"/>
<path d="M1.38728 0.0681968C11.7032 0.0454636 22.0237 0.177319 32.335 0C35.71 6.91089 38.7256 14.0036 41.9823 20.9736C46.7764 31.6037 51.6797 42.1837 56.4373 52.8319C56.7466 52.5045 56.9832 52.1317 57.1469 51.718C63.9787 34.4862 70.906 17.2909 77.7423 0.0636526C87.567 0.0954791 97.3917 0.0909324 107.221 0.0636526C107.23 0.641075 107.248 1.2185 107.266 1.79592C104.551 4.54209 101.708 7.1564 98.9018 9.80255C98.1877 10.43 97.6237 11.2847 97.6783 12.2714C97.6737 32.6039 97.6692 52.9365 97.6828 73.269C97.6419 74.2329 98.1922 75.0695 98.8927 75.6833C101.704 78.334 104.546 80.9529 107.266 83.699C107.248 84.2764 107.23 84.8539 107.221 85.4313C93.1707 85.404 79.1251 85.404 65.0749 85.4313C65.0612 84.8539 65.043 84.2764 65.0294 83.699C67.8949 80.7983 70.8514 77.9975 73.7716 75.1559C74.663 74.4784 74.6176 73.3054 74.6312 72.3052C74.6039 56.1055 74.6358 39.9058 74.613 23.7016C66.4895 44.2524 58.4842 64.8487 50.4334 85.4267C49.3781 85.4131 48.3229 85.4131 47.2722 85.4404C39.1486 67.6539 30.9978 49.8811 22.8606 32.0993C21.5552 29.4031 20.4999 26.5751 18.9989 23.9744C18.9625 37.8053 19.0126 51.6361 18.9716 65.467C18.9216 66.8628 19.3537 68.2723 20.2589 69.3453C23.9386 73.8101 27.5455 78.3385 31.2298 82.7988C31.9666 83.4717 31.6619 84.5401 31.7528 85.4222C21.1686 85.4085 10.5843 85.404 0 85.4267C0.100066 84.6493 -0.191034 83.7218 0.313845 83.0625C3.88439 78.7523 7.4231 74.4193 10.9845 70.1046C11.9124 69.0634 12.7312 67.8222 12.7766 66.3763C12.7403 50.0084 12.7766 33.6315 12.7584 17.259C12.8903 15.163 11.1665 13.7445 9.97933 12.2577C7.11835 8.76137 4.19369 5.31956 1.36909 1.79592C1.37364 1.2185 1.38273 0.641073 1.38728 0.0681968Z" fill="#333333"/>
<path d="M116.518 43.8296C123.295 43.5886 130.104 43.8023 136.891 43.725C138.278 43.5431 139.733 44.4797 139.943 45.8983C140.288 47.4532 138.965 49.1082 137.355 49.0309C130.523 49.0264 123.686 49.0946 116.859 48.9991C114.153 48.7581 113.889 44.457 116.518 43.8296Z" fill="#333333"/>
<path d="M116.513 62.0207C123.286 61.7706 130.091 61.9888 136.872 61.9115C138.251 61.7297 139.72 62.639 139.938 64.0576C140.306 65.6261 138.956 67.3084 137.336 67.2175C130.509 67.2129 123.677 67.2811 116.85 67.1811C114.148 66.9356 113.894 62.6436 116.513 62.0207Z" fill="#333333"/>
<path d="M116.509 80.2072C123.286 79.9571 130.091 80.1754 136.877 80.0981C138.255 79.9162 139.72 80.8255 139.938 82.2441C140.306 83.8036 138.969 85.4858 137.355 85.404C130.814 85.4358 124.273 85.3995 117.732 85.4176C116.668 85.5086 115.536 85.0903 115.003 84.1218C114.116 82.7169 114.894 80.6391 116.509 80.2072Z" fill="#333333"/>
<path d="M32.8126 98.3938C33.8269 98.2073 34.864 98.2983 35.8874 98.2846C69.7007 98.3028 103.514 98.271 137.332 98.2983C138.765 98.221 140.043 99.535 139.984 100.958C140.029 102.368 138.765 103.659 137.345 103.591C103.368 103.622 69.3914 103.586 35.4143 103.609C34.1635 103.563 32.6534 103.859 31.7028 102.818C30.311 101.508 30.9523 98.8757 32.8126 98.3938Z" fill="#333333"/>
<path d="M32.8308 116.576C34.1453 116.367 35.4871 116.503 36.8107 116.476C69.7052 116.471 102.6 116.485 135.494 116.467C136.836 116.485 138.528 116.217 139.433 117.485C140.807 119.095 139.479 121.927 137.332 121.777C102.754 121.795 68.1724 121.795 33.595 121.777C30.6248 121.982 29.9744 117.249 32.8308 116.576Z" fill="#333333"/>
<path d="M32.8399 134.758C41.2728 134.526 49.7329 134.726 58.1749 134.662C84.5651 134.667 110.955 134.644 137.345 134.671C138.956 134.585 140.297 136.249 139.943 137.813C139.729 139.232 138.269 140.159 136.882 139.977C102.45 139.959 68.0177 139.991 33.5904 139.964C32.3487 140.018 31.1934 139.041 30.9932 137.827C30.7067 136.526 31.5527 135.112 32.8399 134.758Z" fill="#333333"/>
</svg>
