<svg width="141" height="141" viewBox="0 0 141 141" fill="none" xmlns="http://www.w3.org/2000/svg">
<path d="M11.5639 0.699997C13.6239 0.049997 15.8239 0.03 17.9739 0C53.3439 0.05 88.7139 -0.0500067 124.084 0.0399933C132.864 -0.0100067 140.544 8.26 140.034 17C139.994 52.7 140.064 88.41 139.994 124.11C139.994 132.87 131.744 140.56 123.004 140.01C87.3339 139.99 51.6539 140.05 15.9839 139.98C7.24389 140.02 -0.486107 131.81 0.0238929 123.08C0.0338929 87.36 -0.00610663 51.64 0.0438934 15.92C0.0338934 9.04 5.12389 2.8 11.5639 0.699997ZM15.1939 11.16C12.0139 11.61 10.6639 15.06 10.8739 17.92C10.9339 53.05 10.8039 88.18 10.9339 123.3C10.8139 126.66 13.6539 129.28 16.9739 129.12C52.0139 129.2 87.0539 129.12 122.094 129.16C123.944 129.03 126.144 128.97 127.484 127.5C129.224 125.86 129.094 123.21 129.184 121.03C129.124 86.33 129.214 51.63 129.134 16.93C129.354 13.55 126.474 10.72 123.104 10.9C88.7639 10.81 54.4139 10.92 20.0639 10.85C18.4439 10.88 16.7839 10.74 15.1939 11.16Z" fill="#FD71EA"/>
<path d="M31.404 23.4459C35.814 22.3159 40.874 23.7259 43.504 27.5859C47.944 33.1459 45.204 42.2959 38.544 44.6659C31.964 47.5859 23.614 42.3159 23.354 35.1559C22.694 29.9559 26.404 24.7659 31.404 23.4459Z" fill="#FD71EA"/>
<path d="M74.674 62.4959C77.254 56.4059 84.044 53.4959 90.254 52.8359C97.014 52.4059 104.584 53.5559 109.474 58.6759C113.834 63.5959 114.884 70.426 115.334 76.756C115.514 89.726 115.374 102.706 115.414 115.676C109.114 115.646 102.824 115.686 96.534 115.656C96.524 104.586 96.594 93.5159 96.494 82.4559C96.264 78.5559 95.934 74.026 92.784 71.286C89.834 68.666 85.494 69.026 81.914 69.816C76.444 71.566 74.524 77.786 74.464 82.976C74.344 93.876 74.444 104.776 74.414 115.676C68.194 115.666 61.984 115.656 55.774 115.676C55.774 95.0459 55.744 74.4259 55.784 53.7959C61.984 53.8059 68.184 53.8059 74.384 53.8059C74.364 56.6959 74.344 59.6059 74.674 62.4959Z" fill="#FD71EA"/>
<path d="M24.644 53.8159C30.984 53.7759 37.324 53.8459 43.664 53.7859C43.864 74.4159 43.684 95.0559 43.754 115.696C37.384 115.646 31.014 115.666 24.634 115.686C24.634 95.0559 24.614 74.4359 24.644 53.8159Z" fill="#FD71EA"/>
</svg>
