<svg width="140" height="141" viewBox="0 0 140 141" fill="none" xmlns="http://www.w3.org/2000/svg">
<path d="M37.715 0.923546C56.445 -0.286454 75.255 -0.156455 94.015 0.453545C102.395 0.583545 111.055 1.63355 118.515 5.72355C127.985 10.6235 134.945 19.7735 137.525 30.0735C140.905 43.1135 139.515 56.7036 139.955 70.0236C139.465 84.0636 141.095 98.4935 136.895 112.124C133.395 123.614 124.125 133.064 112.725 136.824C104.815 139.644 96.305 139.454 88.035 139.774C73.685 140.154 59.335 140.104 44.995 139.534C39.005 139.374 32.915 138.834 27.235 136.814C18.075 133.714 10.115 127.104 5.68497 118.484C1.33497 110.054 0.244974 100.384 0.184974 91.0236C-0.0350261 78.6936 -0.0550279 66.3636 0.104972 54.0236C0.0749721 42.8236 0.544967 31.0735 5.97497 20.9935C12.125 9.31354 24.755 2.02355 37.715 0.923546ZM18.625 21.7435C13.025 28.4735 11.415 37.5336 11.295 46.0536C11.155 57.7136 10.635 69.3635 11.015 81.0035C11.465 89.6835 10.625 98.5535 12.965 107.034C14.735 114.164 19.305 120.604 25.765 124.214C35.195 129.734 46.525 128.264 56.975 128.824C71.245 129.654 85.515 128.704 99.785 128.334C110.015 127.904 120.395 122.384 124.815 112.844C130.565 100.734 128.025 86.9735 129.055 74.0635C129.135 64.3835 128.675 54.7036 128.615 45.0236C128.505 34.5836 125.265 22.9935 116.045 17.0035C106.755 10.2935 94.765 11.7135 83.975 11.2135C69.615 10.3535 55.255 11.2635 40.895 11.6635C32.555 11.9435 24.055 15.2235 18.625 21.7435Z" fill="#F0F0F0"/>
<path d="M106.825 24.8836C111.365 24.3336 116.075 28.3036 115.825 33.0036C116.155 38.0136 110.825 42.4136 105.975 41.1136C101.905 40.3236 98.885 36.0636 99.565 31.9736C99.995 28.2636 103.205 25.4236 106.825 24.8836Z" fill="#F0F0F0"/>
<path d="M66.595 35.9236C77.055 34.9436 87.885 39.1736 94.925 46.9936C100.575 53.2136 104.005 61.5536 103.795 70.0136C104.045 80.8436 98.395 91.4436 89.665 97.7336C83.975 101.884 77.005 104.024 70.005 104.264C60.325 104.244 50.685 100.084 44.275 92.7836C36.795 84.6336 33.745 72.6836 36.465 61.9636C39.695 48.0636 52.395 37.1436 66.595 35.9236ZM66.865 46.9236C56.275 48.1036 47.355 57.2936 46.535 67.9136C45.565 77.4336 51.215 87.2136 59.975 91.0636C67.715 94.8836 77.495 93.5836 84.155 88.1736C90.155 83.4136 93.595 75.6036 92.745 67.9436C92.115 55.2936 79.345 45.0636 66.865 46.9236Z" fill="#F0F0F0"/>
</svg>
