<svg width="32" height="32" viewBox="0 0 32 32" fill="none" xmlns="http://www.w3.org/2000/svg">
<path d="M20.2156 18.4911L19.9705 18.8356L20.2695 19.1345L24.8928 23.7579L23.7578 24.8929L19.1344 20.2696L18.8355 19.9706L18.491 20.2157C16.9917 21.2825 15.1464 21.747 13.3207 21.5172C11.4951 21.2873 9.82245 20.3799 8.63437 18.9748C7.44629 17.5698 6.82951 15.7696 6.9063 13.9311C6.98309 12.0927 7.74784 10.3502 9.04896 9.04905C10.3501 7.74793 12.0926 6.98318 13.931 6.90639C15.7695 6.8296 17.5697 7.44638 18.9747 8.63446C20.3798 9.82254 21.2872 11.4952 21.5171 13.3208C21.7469 15.1465 21.2824 16.9918 20.2156 18.4911ZM7.68472 14.2616L7.68472 14.2622C7.68671 16.0057 8.3802 17.6772 9.61304 18.91C10.8459 20.1429 12.5174 20.8364 14.2609 20.8384H14.2615C15.5623 20.8384 16.8338 20.4527 17.9154 19.73C18.9969 19.0073 19.8399 17.9802 20.3377 16.7784C20.8354 15.5767 20.9657 14.2543 20.7119 12.9785C20.4581 11.7028 19.8318 10.5309 18.912 9.61111C17.9922 8.69133 16.8203 8.06495 15.5446 7.81118C14.2688 7.55742 12.9464 7.68766 11.7447 8.18544C10.5429 8.68322 9.51577 9.52618 8.79311 10.6077C8.07044 11.6893 7.68472 12.9608 7.68472 14.2616Z" fill="#4F4F4F" stroke="#4F4F4F"/>
<path d="M0 0V-1H-1V0H0ZM32 0H33V-1H32V0ZM32 32V33H33V32H32ZM0 32H-1V33H0V32ZM0 1H32V-1H0V1ZM31 0V32H33V0H31ZM32 31H0V33H32V31ZM1 32V0H-1V32H1Z" fill="white"/>
</svg>
